<svg width="20" height="11" viewBox="0 0 20 11" fill="none" xmlns="http://www.w3.org/2000/svg">
<path d="M10.4466 10.0567L19.0712 2.47737C19.2709 2.30207 19.3809 2.06806 19.3809 1.81854C19.3809 1.56902 19.2709 1.33501 19.0712 1.15971L18.4362 0.60154C18.0225 0.238338 17.35 0.238338 16.9368 0.60154L9.6944 6.9661L2.44394 0.594478C2.2443 0.419177 1.97817 0.322387 1.69439 0.322387C1.41029 0.322387 1.14416 0.419177 0.944366 0.594478L0.309528 1.15264C0.10989 1.32808 -9.15675e-05 1.56196 -9.15705e-05 1.81148C-9.15735e-05 2.061 0.10989 2.29501 0.309528 2.47031L8.94202 10.0567C9.14229 10.2324 9.40968 10.3289 9.69393 10.3284C9.97928 10.3289 10.2465 10.2324 10.4466 10.0567Z" fill="#fff"/>
</svg>