<svg width="1171" height="650" viewBox="0 0 1171 650" fill="none" xmlns="http://www.w3.org/2000/svg">
<g opacity="0.12">
<path fill-rule="evenodd" clip-rule="evenodd" d="M0.074707 626.061C0.924595 625.399 1.69067 624.634 2.35546 623.781C11.1544 608.384 19.8786 592.974 28.5281 577.552C28.7482 577.111 28.9357 576.654 29.0889 576.184L20.4893 560.8C14.6566 550.543 8.79891 540.274 2.91631 529.992C2.06632 528.761 1.11576 527.605 0.074707 526.536V523.155L3.40237 522.053C4.0006 523.079 4.82317 524.37 5.57096 525.852C13.9088 540.553 22.3588 555.216 30.5471 569.992C31.1459 571.463 32.1993 572.695 33.5483 573.504C34.8973 574.313 36.4686 574.653 38.025 574.475C54.5885 574.209 71.152 574.475 87.7155 574.475H92.5014V578.691H88.052C71.1894 578.691 54.4016 578.691 37.5015 578.691C36.1495 578.53 34.7822 578.812 33.5986 579.495C32.415 580.178 31.4769 581.228 30.921 582.49C22.6953 597.381 14.1705 612.158 5.7579 626.972C5.01011 628.302 4.22493 629.631 3.43975 630.771L0.074707 629.555V626.061ZM33.9495 575.994C32.8652 575.462 32.1922 574.855 31.5566 574.893C30.921 574.931 30.6967 575.766 30.248 576.26C30.8088 576.716 31.3697 577.552 31.9679 577.59C32.5661 577.628 33.0522 576.906 33.9495 575.994Z" fill="white"/>
<path fill-rule="evenodd" clip-rule="evenodd" d="M0.074707 326.08C0.924595 325.418 1.69067 324.653 2.35546 323.8C11.1544 308.403 19.8786 292.993 28.5281 277.571C28.7617 277.136 28.9497 276.678 29.0889 276.203L20.265 260.705C14.507 250.562 8.74906 240.382 2.91631 230.315C2.08535 229.069 1.13338 227.911 0.074707 226.858V223.44L3.40237 222.338L5.7579 226.365C13.9836 240.837 22.1345 255.31 30.3975 269.707C33.6504 275.367 31.8557 274.456 38.3615 274.494H92.4266V278.71H88.0521C71.1894 278.71 54.4016 278.71 37.5015 278.71C36.1495 278.549 34.7822 278.831 33.5986 279.514C32.415 280.197 31.477 281.246 30.921 282.509C22.6953 297.4 14.1705 312.177 5.7579 326.991C5.01012 328.359 4.22493 329.65 3.43976 330.79L0.074707 329.574V326.08ZM31.7062 278.368C32.454 277.533 33.1644 277.039 33.3513 276.393C33.5383 275.747 32.5287 275.026 32.1549 275.064C31.7979 275.126 31.4589 275.267 31.1616 275.477C30.8644 275.687 30.6163 275.961 30.4349 276.279C30.2854 276.697 31.1079 277.419 31.7062 278.368Z" fill="white"/>
<path fill-rule="evenodd" clip-rule="evenodd" d="M0.074777 26.0991C0.924665 25.4379 1.69074 24.6723 2.35553 23.8199C11.1545 8.42257 19.8787 -6.98743 28.5281 -22.4101C28.7563 -22.8341 28.9441 -23.2793 29.089 -23.7396C26.0231 -29.1717 22.9197 -34.6798 19.779 -40.1879C14.1706 -50.0645 8.56218 -59.9791 2.84159 -69.8557C2.01064 -71.1016 1.05867 -72.2597 0 -73.3125V-76.7313L3.29027 -77.7949C3.92589 -76.7693 4.74846 -75.4777 5.49625 -73.9962C13.7593 -59.4473 21.985 -44.8223 30.3228 -30.3114C33.5757 -24.6513 31.781 -25.563 38.2868 -25.525C54.7008 -25.525 71.1521 -25.525 87.5661 -25.525H92.3519V-21.3085H88.0521C71.1895 -21.3085 54.4016 -21.3085 37.5016 -21.3085C36.1503 -21.4635 34.7854 -21.1793 33.6031 -20.4968C32.4207 -19.8143 31.4817 -18.7685 30.9211 -17.5098C22.6206 -2.31504 14.0584 12.4239 5.53364 27.3527C4.86063 28.5683 4.11284 29.7838 3.40244 31.1514L0.074777 29.9358V26.0991ZM33.9496 -23.7017C32.9027 -24.3094 32.2671 -24.9172 31.6315 -24.9172C30.9958 -24.9172 30.7341 -24.0815 30.2854 -23.6257C30.8089 -23.1318 31.3324 -22.2582 31.8932 -22.2202C32.454 -22.1822 33.0149 -22.9799 33.9496 -23.7017Z" fill="white"/>
<path fill-rule="evenodd" clip-rule="evenodd" d="M0.074707 176.526C0.942614 175.626 1.74252 174.661 2.46763 173.639C11.1918 158.445 19.916 143.161 28.6402 127.789C28.8604 127.348 29.0478 126.891 29.2011 126.422C28.7524 125.51 28.3037 124.522 27.7803 123.535C19.6045 109.1 11.3912 94.6648 3.14064 80.2298C2.43024 79.0143 2.2059 77.1149 0.186874 77.077V73.6961L3.36498 72.1387C3.96321 73.0883 4.67361 74.114 5.27184 75.1776C13.9088 90.3723 22.6205 105.567 31.1453 120.762C31.6504 121.989 32.5291 123.02 33.6527 123.704C34.7763 124.388 36.0857 124.688 37.3894 124.56C54.1025 124.56 70.8155 124.56 87.5286 124.56H92.6136V128.549C91.9985 128.696 91.3737 128.798 90.7441 128.853H53.0182C47.4471 128.853 41.8013 128.853 36.3051 128.853C35.2846 128.754 34.2595 128.984 33.3741 129.508C32.4887 130.033 31.7876 130.827 31.3697 131.778C22.8449 146.973 14.1705 162.167 5.53357 177.362C4.82317 178.578 4.07538 179.755 3.32759 181.161L0.074707 179.451V176.526ZM29.9863 126.346C30.8088 127.03 31.3697 127.903 31.9305 127.865C32.4914 127.827 33.0148 127.03 33.5756 126.536C33.0896 126.004 32.6783 125.054 32.1175 124.978C31.5566 124.902 30.7341 125.7 29.7993 126.346H29.9863Z" fill="white"/>
<path fill-rule="evenodd" clip-rule="evenodd" d="M0.074707 476.469C0.95103 475.591 1.7516 474.637 2.46763 473.62C11.1918 458.425 19.916 443.129 28.6402 427.732C28.8684 427.308 29.0562 426.863 29.2011 426.403C28.7524 425.491 28.3037 424.465 27.7803 423.516C19.6045 409.081 11.3912 394.646 3.14064 380.211C2.43024 378.995 2.2059 377.096 0.186874 377.058V373.677L3.36498 372.12C3.96321 373.069 4.67361 374.095 5.27184 375.159C13.9088 390.353 22.6205 405.548 31.1453 420.743C31.6552 421.967 32.5349 422.994 33.6573 423.677C34.7797 424.36 36.0866 424.662 37.3894 424.541C54.1025 424.351 70.8155 424.541 87.5286 424.541H92.6136V428.53C91.9985 428.677 91.3737 428.778 90.7441 428.834H52.1956C46.8863 428.834 41.6144 428.834 36.3051 428.834C35.2846 428.735 34.2595 428.965 33.3741 429.489C32.4887 430.014 31.7876 430.808 31.3697 431.759C22.6953 447.257 13.8714 462.68 5.19706 478.102C4.63622 479.09 4.03799 480.04 3.43976 481.027L0.186874 479.318L0.074707 476.469ZM33.9122 426.289C32.94 425.643 32.3044 424.883 31.781 424.959C31.2575 425.035 30.7714 425.947 30.2854 426.516C30.8462 427.01 31.3697 427.846 31.9305 427.846C32.4914 427.846 33.0522 427.01 33.9122 426.289Z" fill="white"/>
<path fill-rule="evenodd" clip-rule="evenodd" d="M1171.07 33.7344L1151.37 -0.83322L1155.11 -3.15039C1158.25 2.35763 1161.35 7.86567 1164.49 13.2977C1166.66 17.0964 1168.91 20.7051 1171.11 24.3897L1171.07 33.7344Z" fill="white"/>
<path fill-rule="evenodd" clip-rule="evenodd" d="M1171.07 633.696L1151.37 599.09L1155.11 596.811L1164.49 613.259C1166.66 617.058 1168.91 620.666 1171.11 624.351L1171.07 633.696Z" fill="white"/>
<path fill-rule="evenodd" clip-rule="evenodd" d="M1171.07 333.715L1151.37 299.109C1152.6 298.35 1153.73 297.704 1155.11 296.83C1158.4 302.566 1161.62 308.226 1164.91 314C1166.92 317.495 1169.06 320.914 1171.11 324.371L1171.07 333.715Z" fill="white"/>
<path fill-rule="evenodd" clip-rule="evenodd" d="M1171.07 228.34L1157.58 251.664L1155.07 255.994L1151.33 253.791C1157.89 242.192 1164.44 230.594 1171 218.995L1171.07 228.34Z" fill="white"/>
<path fill-rule="evenodd" clip-rule="evenodd" d="M1171.07 528.321L1157.58 551.645L1155.07 555.975L1151.33 553.772C1157.89 542.173 1164.44 530.575 1171 518.977L1171.07 528.321Z" fill="white"/>
<path fill-rule="evenodd" clip-rule="evenodd" d="M1171.07 483.269C1166.18 474.836 1161.24 466.365 1156.38 457.894C1154.7 454.969 1153.09 452.044 1151.45 449.119L1155.18 446.877C1160.49 456.197 1165.83 465.504 1171.19 474.798L1171.07 483.269Z" fill="white"/>
<path fill-rule="evenodd" clip-rule="evenodd" d="M1171.07 183.326C1166.18 174.855 1161.24 166.384 1156.38 157.913C1154.7 154.988 1153.09 152.063 1151.45 149.138L1155.18 146.897C1160.49 156.191 1165.83 165.498 1171.19 174.817L1171.07 183.326Z" fill="white"/>
<path fill-rule="evenodd" clip-rule="evenodd" d="M1171.07 377.893L1155.15 405.927L1151.41 403.61L1171.11 369.422L1171.07 377.893Z" fill="white"/>
<path fill-rule="evenodd" clip-rule="evenodd" d="M1171.07 77.9505L1155.15 105.947L1151.41 103.668L1171.11 69.4795L1171.07 77.9505Z" fill="white"/>
<path fill-rule="evenodd" clip-rule="evenodd" d="M653.755 578.501V574.284H713.092L743.003 521.977L746.742 524.142L717.092 576.412L746.705 628.567L742.966 630.884C742.181 629.555 741.358 628.225 740.61 627.086C732.086 612.157 723.523 597.228 715.186 582.186C714.643 580.994 713.743 580.007 712.615 579.365C711.487 578.724 710.188 578.461 708.904 578.615C692.041 578.615 675.254 578.615 658.316 578.615L653.755 578.501ZM714.55 574.436C713.802 575.272 713.092 575.766 712.905 576.412C712.718 577.057 713.69 577.779 714.026 577.741C714.385 577.698 714.729 577.573 715.034 577.376C715.338 577.179 715.594 576.914 715.784 576.602C715.933 575.994 715.148 575.386 714.55 574.436Z" fill="white"/>
<path fill-rule="evenodd" clip-rule="evenodd" d="M476.267 353.621H471.294C454.581 353.621 437.868 353.621 421.155 353.621C419.854 353.511 418.552 353.819 417.432 354.5C416.312 355.181 415.43 356.202 414.911 357.419C406.461 372.614 397.824 387.619 389.262 402.699L387.243 406.08L383.504 403.915C393.374 386.555 403.171 369.271 413.191 351.683L383.504 299.338L387.243 297.059L417.154 349.328H476.267V353.621ZM415.92 349.328C415.173 350.202 414.275 350.772 414.275 351.341C414.275 351.911 415.173 352.481 415.659 353.051C416.219 352.557 417.154 352.101 417.229 351.493C417.304 350.886 416.519 350.316 415.92 349.328Z" fill="white"/>
<path fill-rule="evenodd" clip-rule="evenodd" d="M899.141 405.928L895.402 403.649L925.314 351.417C915.368 333.943 905.572 316.697 895.627 299.147L899.366 296.792L929.277 349.176H988.689V353.62H983.268C966.966 353.62 950.664 353.62 934.362 353.62C932.682 353.42 930.982 353.768 929.51 354.615C928.038 355.462 926.869 356.763 926.174 358.33C918.023 373.145 909.573 387.808 901.198 402.509L899.141 405.928ZM929.838 351.531C928.941 350.771 928.342 349.935 927.819 349.973C927.296 350.011 926.66 350.847 926.099 351.341C926.623 351.911 927.071 352.86 927.632 352.936C928.193 353.012 928.791 352.215 929.801 351.531H929.838Z" fill="white"/>
<path fill-rule="evenodd" clip-rule="evenodd" d="M141.855 578.501V574.284H201.193C211.213 556.659 221.121 539.299 231.104 521.901C232.375 522.661 233.422 523.306 234.843 524.104L205.156 576.412L234.768 628.605L231.029 630.922C230.282 629.631 229.459 628.339 228.711 627.124C220.186 612.195 211.662 597.266 203.286 582.224C202.778 581.006 201.905 579.983 200.79 579.301C199.675 578.619 198.376 578.312 197.08 578.425C180.217 578.425 163.429 578.425 146.492 578.425L141.855 578.501ZM202.389 578.501L204.071 576.488C203.511 575.994 202.987 575.31 202.352 575.158C201.716 575.006 201.006 575.956 201.043 576.336C201.08 576.715 201.753 577.437 202.389 578.387V578.501Z" fill="white"/>
<path fill-rule="evenodd" clip-rule="evenodd" d="M131.237 405.89L127.498 403.686C137.332 386.365 147.202 369.005 157.148 351.417C147.277 333.981 137.406 316.621 127.461 299.147L130.901 296.982C131.259 297.306 131.573 297.676 131.835 298.084L157.148 342.566C157.896 343.895 158.793 345.187 159.429 346.592C159.697 347.478 160.275 348.232 161.053 348.715C161.831 349.198 162.756 349.375 163.654 349.214C164.625 349.157 165.599 349.157 166.57 349.214H220.411V353.24C219.943 353.429 219.453 353.557 218.953 353.62H197.641C186.91 353.62 176.179 353.62 165.486 353.62C164.129 353.457 162.755 353.737 161.565 354.42C160.375 355.103 159.43 356.153 158.868 357.419C150.455 372.613 141.818 387.58 133.256 402.661C132.658 403.686 131.947 404.75 131.237 405.89ZM161.934 351.303C160.962 350.657 160.289 349.897 159.765 349.973C159.242 350.049 158.756 350.961 158.27 351.531C158.793 352.025 159.354 352.936 159.915 352.936C160.476 352.936 161.036 352.063 161.934 351.303Z" fill="white"/>
<path fill-rule="evenodd" clip-rule="evenodd" d="M73.2456 349.214L103.157 296.944L106.896 299.034L76.9846 351.417L106.634 403.649L102.895 405.928C102.148 404.75 101.437 403.573 100.727 402.357C92.389 387.656 83.939 372.993 75.7507 358.179C75.104 356.667 74.0039 355.401 72.6074 354.562C71.2108 353.723 69.5892 353.354 67.9737 353.506C51.5224 353.772 35.071 353.506 18.6571 353.506H13.759C13.759 351.987 13.759 350.657 13.759 349.1L73.2456 349.214ZM74.5916 353.582C75.2647 352.595 76.0498 351.949 75.9751 351.341C75.8555 350.993 75.6473 350.682 75.3714 350.442C75.0956 350.202 74.762 350.04 74.4047 349.974C73.9186 349.974 73.0587 350.961 73.0587 351.531C73.0587 352.101 73.8812 352.709 74.5916 353.582Z" fill="white"/>
<path fill-rule="evenodd" clip-rule="evenodd" d="M909.723 578.501V574.285H914.434C931.409 574.285 948.421 574.285 965.433 574.285C966.582 574.404 967.738 574.148 968.733 573.554C969.728 572.959 970.511 572.057 970.967 570.98C979.392 555.988 987.879 541.021 996.429 526.079C997.177 524.75 997.962 523.42 998.859 521.901L1002.6 524.066L972.911 576.336C982.819 593.734 992.615 611.018 1002.52 628.491L998.784 630.809C997.999 629.479 997.177 628.15 996.429 627.01C988.016 612.195 979.492 597.418 971.228 582.452C970.615 581.168 969.622 580.112 968.388 579.431C967.155 578.75 965.742 578.478 964.349 578.653C947.598 578.653 930.885 578.653 914.172 578.653L909.723 578.501ZM972.425 576.64C971.49 575.88 971.004 575.158 970.406 575.044C969.808 574.93 968.91 575.766 968.948 575.994C968.985 576.222 969.583 577.627 970.069 577.741C970.555 577.855 971.341 577.171 972.425 576.64Z" fill="white"/>
<path fill-rule="evenodd" clip-rule="evenodd" d="M860.331 574.285V578.501H855.62C838.758 578.501 821.97 578.501 805.032 578.501C803.734 578.376 802.43 578.678 801.313 579.362C800.196 580.046 799.324 581.075 798.826 582.3C790.525 597.191 782.038 612.006 773.625 626.821L771.195 631.037L767.456 628.796L797.106 576.602L767.456 524.408L771.195 522.091L801.106 574.475L860.331 574.285ZM799.087 578.653L800.134 578.007C800.471 577.362 801.069 576.754 801.106 576.108C801.144 575.462 800.059 574.931 799.76 575.044C799.461 575.158 798.302 575.918 798.227 576.488C798.153 577.058 798.751 577.931 799.087 578.653Z" fill="white"/>
<path fill-rule="evenodd" clip-rule="evenodd" d="M545.026 574.247H604.4V578.501H599.727C582.864 578.501 566.076 578.501 549.139 578.501C547.835 578.374 546.526 578.674 545.402 579.358C544.278 580.041 543.4 581.072 542.895 582.3C534.594 597.191 526.107 612.006 517.694 626.859L515.226 631.037L511.488 628.872L541.137 576.64C531.267 559.242 521.471 541.958 511.525 524.484L515.264 522.091C525.247 539.261 534.968 556.659 545.026 574.247ZM543.942 574.437L542.184 576.374C542.708 576.868 543.194 577.59 543.829 577.742C544.465 577.894 545.175 576.982 545.175 576.64C545.175 576.298 544.502 575.386 543.942 574.437Z" fill="white"/>
<path fill-rule="evenodd" clip-rule="evenodd" d="M490.662 628.644L486.923 630.885C486.175 629.593 485.315 628.302 484.567 627.086C476.08 612.119 467.517 597.191 459.142 582.148C458.644 580.923 457.772 579.893 456.655 579.21C455.538 578.526 454.234 578.224 452.936 578.349C436.073 578.349 419.285 578.349 402.348 578.349H397.786V574.171H457.123L487.035 521.825L490.774 523.99C480.903 541.388 471.032 558.748 461.124 576.26L490.662 628.644ZM460.75 576.298C459.703 575.69 459.105 575.082 458.432 575.044C457.759 575.006 457.534 575.842 457.086 576.26C457.572 576.792 458.058 577.704 458.619 577.742C459.18 577.78 459.591 576.982 460.563 576.298H460.75Z" fill="white"/>
<path fill-rule="evenodd" clip-rule="evenodd" d="M289.095 574.323H348.432V578.501H343.721C326.859 578.501 310.071 578.501 293.134 578.501C291.837 578.388 290.538 578.695 289.423 579.377C288.309 580.06 287.435 581.083 286.927 582.3C278.626 597.229 270.139 612.044 261.726 626.859C260.941 628.188 260.156 629.518 259.296 631.037L255.557 628.796C265.528 611.398 275.411 594 285.207 576.602L255.557 524.408L259.296 522.091L289.095 574.323ZM289.918 576.222C288.834 575.652 288.198 575.044 287.562 575.044C286.927 575.044 286.665 575.88 286.254 576.336C286.777 576.83 287.263 577.704 287.824 577.742C288.385 577.78 288.946 576.944 289.918 576.222Z" fill="white"/>
<path fill-rule="evenodd" clip-rule="evenodd" d="M1053.07 276.431L1023.42 224.2L1027.16 221.882L1057.07 274.19H1116.49V278.52H1063.21C1055.54 278.52 1057.56 277.495 1053.9 283.876C1045.67 298.197 1037.59 312.556 1029.44 326.915L1027.09 330.714L1023.35 328.549C1033.29 311.341 1043.13 293.943 1053.07 276.431ZM1055.62 274.456C1054.94 275.367 1054.53 275.975 1054.08 276.545C1054.68 277.001 1055.24 277.647 1055.88 277.761C1056.51 277.875 1057.15 276.887 1057.11 276.507C1057.07 276.127 1056.18 275.367 1055.62 274.456Z" fill="white"/>
<path fill-rule="evenodd" clip-rule="evenodd" d="M998.859 221.997L1002.6 224.124C992.727 241.484 982.894 258.844 972.874 276.431L1002.52 328.625L998.784 330.904C998.074 329.689 997.251 328.435 996.541 327.106C987.941 311.911 979.342 296.982 970.892 281.826C970.376 280.697 969.525 279.76 968.459 279.147C967.393 278.534 966.165 278.275 964.947 278.407C948.084 278.407 931.296 278.407 914.359 278.407H909.573V274.19H914.097C931.109 274.19 948.122 274.19 965.097 274.19C966.314 274.322 967.542 274.059 968.603 273.438C969.665 272.817 970.505 271.87 971.004 270.733C979.379 255.539 987.941 240.8 996.429 225.833L998.859 221.997ZM972.425 276.621C971.49 275.862 970.929 275.026 970.368 275.064C969.808 275.102 969.322 275.976 968.761 276.469C969.209 276.925 969.658 277.761 970.069 277.761C970.481 277.761 971.378 277.191 972.425 276.621Z" fill="white"/>
<path fill-rule="evenodd" clip-rule="evenodd" d="M771.12 330.904L767.381 328.663L797.031 276.431L767.381 224.237L771.12 221.882C781.028 239.242 790.899 256.602 801.032 274.228H860.443V278.52H855.844C838.982 278.52 822.194 278.52 805.257 278.52C803.952 278.387 802.64 278.684 801.515 279.369C800.39 280.053 799.513 281.088 799.013 282.319C790.637 297.324 782.075 312.252 773.588 327.219C772.69 328.283 772.017 329.574 771.12 330.904ZM801.929 276.241C800.845 275.671 800.209 275.064 799.573 275.064C798.938 275.064 798.676 275.899 798.227 276.355C798.751 276.849 799.274 277.723 799.835 277.761C800.396 277.799 800.845 277.001 801.929 276.241Z" fill="white"/>
<path fill-rule="evenodd" clip-rule="evenodd" d="M716.943 276.431L746.593 328.663L742.854 330.904C742.068 329.612 741.246 328.321 740.498 327.105C731.973 312.138 723.411 297.21 715.073 282.205C714.559 280.985 713.678 279.96 712.557 279.278C711.436 278.596 710.131 278.291 708.829 278.406C691.967 278.406 675.179 278.406 658.241 278.406H653.605V274.228H712.942L742.854 221.882L746.593 224.048C736.722 241.711 726.888 258.957 716.943 276.431ZM714.363 274.456C713.69 275.367 713.017 275.937 712.942 276.545C712.867 277.153 713.839 277.837 714.176 277.761C714.512 277.685 715.372 276.963 715.933 276.507L714.363 274.456Z" fill="white"/>
<path fill-rule="evenodd" clip-rule="evenodd" d="M604.438 274.266V278.065C603.937 278.207 603.423 278.296 602.905 278.33H566.375C560.542 278.33 554.672 278.33 548.84 278.33C547.619 278.175 546.381 278.423 545.31 279.039C544.239 279.655 543.392 280.606 542.895 281.749C534.37 296.944 525.696 312.138 517.021 327.333C516.423 328.435 515.75 329.498 515.002 330.714L511.263 328.511L540.876 276.279L511.226 224.048L514.965 221.769L544.876 274.114L604.438 274.266ZM543.605 278.368C544.353 277.533 545.063 277.039 545.213 276.393C545.362 275.747 544.428 275.026 544.054 275.064C543.697 275.126 543.358 275.267 543.061 275.477C542.763 275.687 542.515 275.961 542.334 276.279C542.184 276.697 543.007 277.419 543.605 278.368Z" fill="white"/>
<path fill-rule="evenodd" clip-rule="evenodd" d="M490.661 328.701L486.923 330.904C482.099 322.357 477.276 313.924 472.49 305.491C467.704 297.058 463.33 289.575 458.955 281.56C458.498 280.553 457.747 279.714 456.803 279.156C455.86 278.599 454.771 278.35 453.683 278.445C436.671 278.445 419.659 278.445 402.684 278.445H397.861V274.646C398.339 274.524 398.827 274.448 399.319 274.418C416.443 274.418 433.605 274.418 450.73 274.418C458.693 274.418 456.413 275.596 460.339 268.834C468.49 254.665 476.491 240.382 484.604 226.175C485.352 224.845 486.137 223.516 486.96 222.11L490.699 224.238L461.012 276.545C470.808 293.753 480.678 311.113 490.661 328.701ZM460.413 276.963C459.815 276.127 459.516 275.254 459.105 275.216C458.386 275.276 457.687 275.483 457.048 275.824C457.347 276.469 457.497 277.495 457.983 277.685C458.469 277.875 459.329 277.343 460.413 276.963Z" fill="white"/>
<path fill-rule="evenodd" clip-rule="evenodd" d="M259.221 330.904L255.482 328.663L285.132 276.431L255.594 224.237L259.333 221.882L289.245 274.228H348.432V278.52H343.833C326.971 278.52 310.183 278.52 293.246 278.52C291.941 278.387 290.629 278.684 289.504 279.369C288.379 280.053 287.502 281.088 287.001 282.319C278.626 297.324 270.064 312.252 261.577 327.219C260.829 328.283 260.006 329.574 259.221 330.904ZM287.974 274.456L286.216 276.393C286.777 276.887 287.263 277.609 287.899 277.761C288.534 277.913 289.245 277.039 289.207 276.659C289.17 276.279 288.572 275.405 287.974 274.456Z" fill="white"/>
<path fill-rule="evenodd" clip-rule="evenodd" d="M231.029 221.882L234.768 224.2C224.897 241.559 215.064 258.957 205.118 276.431L234.768 328.663L231.029 330.904C230.244 329.612 229.422 328.321 228.674 327.105C220.149 312.138 211.587 297.21 203.249 282.205C202.739 280.981 201.859 279.953 200.737 279.271C199.615 278.588 198.308 278.285 197.005 278.406C180.142 278.406 163.354 278.406 146.417 278.406H141.855V274.228H201.193L231.029 221.882ZM202.277 274.456C201.716 275.443 201.118 276.051 201.08 276.659C201.043 277.267 202.052 277.875 202.426 277.761C202.8 277.647 203.511 276.849 204.072 276.355L202.277 274.456Z" fill="white"/>
<path fill-rule="evenodd" clip-rule="evenodd" d="M141.818 -21.46V-25.2587C142.316 -25.2981 142.816 -25.2981 143.313 -25.2587H186.797C189.975 -25.2587 193.228 -25.4866 196.406 -25.2587C197.938 -25.0014 199.51 -25.3026 200.844 -26.1089C202.178 -26.9153 203.189 -28.1749 203.697 -29.6652C211.848 -44.48 220.336 -59.1429 228.674 -73.8438L231.104 -77.9844L234.843 -75.8191L205.043 -23.5493L234.693 28.6446L230.954 30.9238C229.309 28.0748 227.664 25.3018 226.094 22.4908C218.616 9.11939 210.839 -4.10001 203.398 -17.6613C202.842 -18.9066 201.914 -19.9431 200.747 -20.6246C199.58 -21.3061 198.232 -21.5983 196.893 -21.46C180.142 -21.46 163.242 -21.46 146.716 -21.46H141.818ZM202.651 -25.5246C201.903 -24.6889 201.192 -24.1951 201.005 -23.5493C200.818 -22.9035 201.791 -22.1438 202.127 -22.2197C202.488 -22.2541 202.836 -22.3754 203.141 -22.5736C203.447 -22.7718 203.702 -23.0411 203.884 -23.3593C204.034 -23.7772 203.249 -24.5369 202.651 -25.5246Z" fill="white"/>
<path fill-rule="evenodd" clip-rule="evenodd" d="M781.664 653.601V649.384C782.174 649.349 782.686 649.349 783.197 649.384H832.513C835.385 649.797 838.311 649.55 841.076 648.663C843.169 647.447 844.142 644.104 845.525 641.635L868.706 600.837C869.379 599.622 870.165 598.444 870.912 597.039L874.651 599.09L844.927 651.512L874.539 703.705L870.8 706.061C869.641 704.009 868.482 702.262 867.398 700.097C859.322 685.89 851.133 671.721 843.244 657.4C842.677 656.138 841.731 655.091 840.542 654.408C839.354 653.726 837.983 653.443 836.626 653.601C820.063 653.601 803.462 653.601 786.898 653.601H781.664ZM844.478 651.512C843.581 650.79 843.02 649.916 842.459 649.954C841.898 649.992 841.337 650.828 840.777 651.322C841.263 651.891 841.711 652.841 842.272 652.917C842.833 652.993 843.469 652.195 844.478 651.512Z" fill="white"/>
<path fill-rule="evenodd" clip-rule="evenodd" d="M289.095 -25.6384H348.432V-21.4599H343.796C326.934 -21.4599 310.146 -21.4599 293.208 -21.4599C291.906 -21.5811 290.599 -21.2784 289.476 -20.5956C288.354 -19.9128 287.474 -18.8852 286.964 -17.6612C278.664 -2.73254 270.176 12.0822 261.764 26.8969C260.979 28.2264 260.193 29.5559 259.296 31.1514L255.557 28.9861L285.207 -23.2832L255.632 -75.7045L259.371 -78.0977C269.129 -60.6999 279.038 -43.1881 289.095 -25.6384ZM287.675 -21.5738C288.422 -22.4475 289.133 -22.9413 289.282 -23.5871C289.432 -24.2329 288.46 -24.9546 288.123 -24.9166C287.76 -24.8599 287.413 -24.7213 287.109 -24.511C286.805 -24.3006 286.551 -24.0239 286.366 -23.7011C286.254 -23.2832 287.039 -22.5235 287.675 -21.5738Z" fill="white"/>
<path fill-rule="evenodd" clip-rule="evenodd" d="M461.012 -23.5493C470.982 -6.10081 480.853 11.2971 490.624 28.6443L487.072 30.9614C486.287 29.6699 485.464 28.3783 484.717 27.1628C476.154 11.9681 467.517 -2.96059 459.067 -18.1172C458.591 -19.1872 457.799 -20.0801 456.801 -20.6723C455.802 -21.2644 454.648 -21.5264 453.496 -21.422C436.484 -21.422 419.509 -21.422 402.497 -21.422H397.786V-25.6766H457.161C467.181 -43.3023 477.089 -60.6622 487.072 -78.0601L490.811 -75.8188C480.841 -58.4463 470.907 -41.0231 461.012 -23.5493ZM458.32 -21.574L460.002 -23.5873C459.441 -24.0431 458.918 -24.7649 458.282 -24.9168C457.647 -25.0688 456.974 -24.1191 457.011 -23.7392C457.048 -23.3594 457.684 -22.5237 458.32 -21.574Z" fill="white"/>
<path fill-rule="evenodd" clip-rule="evenodd" d="M541.175 -23.5493L511.562 -75.7429L515.301 -78.0601L545.213 -25.6386H604.55V-21.46H599.652C582.939 -21.46 566.001 -21.46 549.475 -21.46C548.062 -21.615 546.637 -21.3034 545.411 -20.5714C544.185 -19.8393 543.224 -18.7257 542.67 -17.3955C534.37 -2.46675 525.883 12.31 517.432 27.1628C516.759 28.3783 516.012 29.5939 515.226 30.9614L511.488 28.7582L541.175 -23.5493ZM541.623 -23.7772C542.558 -23.0175 543.082 -22.3337 543.68 -22.1818C544.278 -22.0299 545.175 -22.9415 545.138 -23.1695C545.101 -23.3974 544.502 -24.7649 544.016 -24.8788C543.53 -24.9928 542.708 -24.1951 541.623 -23.7772Z" fill="white"/>
<path fill-rule="evenodd" clip-rule="evenodd" d="M716.943 -23.5497L746.555 28.644L743.115 30.8472C742.715 30.3749 742.34 29.8803 741.994 29.3657L715.933 -16.2182C715.39 -17.0443 714.902 -17.9073 714.475 -18.8013C714.14 -19.7261 713.496 -20.5022 712.656 -20.9949C711.816 -21.4876 710.832 -21.6657 709.876 -21.4984C700.379 -21.4984 690.92 -21.4984 681.46 -21.4984H653.643V-25.297C654.278 -25.3363 654.914 -25.3363 655.549 -25.297H706.137C707.245 -25.3732 708.357 -25.3732 709.465 -25.297C710.554 -25.1075 711.674 -25.3066 712.635 -25.8605C713.596 -26.4144 714.338 -27.289 714.737 -28.3359C721.056 -39.7319 727.524 -50.9 733.918 -62.182L742.742 -77.6426L746.48 -75.5153L716.943 -23.5497ZM714.288 -21.5743L715.971 -23.5876C715.41 -24.0435 714.886 -24.7652 714.213 -24.9172C713.54 -25.0691 712.905 -24.1194 712.942 -23.7396C712.98 -23.3597 713.653 -22.524 714.288 -21.5743Z" fill="white"/>
<path fill-rule="evenodd" clip-rule="evenodd" d="M767.493 -75.7805L771.232 -78.0977L801.144 -25.7903H860.518V-21.4598H856.031C839.281 -21.4598 822.568 -21.4598 805.855 -21.4598C804.369 -21.6128 802.875 -21.2786 801.59 -20.5062C800.305 -19.7338 799.297 -18.5638 798.713 -17.1674C790.525 -2.35264 782.075 12.2722 773.737 27.0109L771.382 30.8096L767.643 28.6443L797.293 -23.6251C787.235 -40.9849 777.364 -58.3827 767.493 -75.7805ZM801.929 -23.701C800.845 -24.3088 800.209 -24.9166 799.573 -24.9166C798.938 -24.9166 798.676 -24.0809 798.227 -23.6251C798.751 -23.1312 799.274 -22.2576 799.835 -22.2196C800.396 -22.1816 800.845 -22.9793 801.929 -23.701Z" fill="white"/>
<path fill-rule="evenodd" clip-rule="evenodd" d="M969.06 -25.6763L998.971 -78.022L1002.71 -75.8187C992.839 -58.4588 983.006 -41.0609 973.023 -23.549L1002.67 28.6448L998.934 30.9619C998.149 29.6704 997.326 28.3788 996.578 27.1632C988.054 12.2345 979.529 -2.69432 971.154 -17.7371C970.655 -18.9616 969.783 -19.9915 968.666 -20.6753C967.549 -21.359 966.245 -21.6606 964.947 -21.5357C948.084 -21.5357 931.296 -21.5357 914.359 -21.5357H909.648V-25.6763H969.06ZM970.368 -21.5737C971.041 -22.4854 971.864 -23.2071 971.752 -23.663C971.64 -24.1188 970.705 -24.8026 970.069 -24.9165C969.434 -25.0305 968.798 -24.0049 968.873 -23.625C968.948 -23.2451 969.658 -22.4854 970.368 -21.5737Z" fill="white"/>
<path fill-rule="evenodd" clip-rule="evenodd" d="M1116.3 -25.6769V-21.4604H1111.59C1094.69 -21.4604 1077.94 -21.4604 1061 -21.4604C1059.7 -21.5733 1058.4 -21.2666 1057.29 -20.5844C1056.18 -19.9021 1055.3 -18.8791 1054.79 -17.6617C1046.49 -2.73296 1038.01 12.0438 1029.56 26.8966C1028.81 28.2262 1028.02 29.5557 1027.13 31.0752L1023.39 28.872L1053 -23.3597L1023.39 -75.5154L1027.13 -77.8706L1057.04 -25.487L1116.3 -25.6769ZM1057.75 -23.7016C1056.7 -24.3094 1056.06 -24.9172 1055.43 -24.9172C1054.79 -24.9172 1054.53 -24.0815 1054.08 -23.6256C1054.61 -23.1318 1055.09 -22.2581 1055.65 -22.2201C1056.21 -22.1821 1056.81 -22.9799 1057.75 -23.7016Z" fill="white"/>
<path fill-rule="evenodd" clip-rule="evenodd" d="M106.672 103.668L103.157 105.909C102.484 104.884 101.811 103.858 101.176 102.794C92.6135 87.5996 83.9766 72.7088 75.5639 57.5142C74.9396 56.2316 73.939 55.1775 72.7001 54.4971C71.4612 53.8167 70.045 53.5436 68.6469 53.7155C52.0834 53.7155 35.4824 53.7155 18.9189 53.7155H13.8713V49.1951H73.2832L102.97 -3.03662L106.709 -0.947342L76.7978 51.4363L106.672 103.668ZM74.6292 49.347C73.8814 50.2207 73.0215 50.7905 73.0215 51.3603C73.0215 51.9301 73.9188 52.4999 74.4049 53.0697C74.9657 52.5759 75.9004 52.1201 75.9752 51.5503C76.05 50.9804 75.2648 50.3347 74.6292 49.347Z" fill="white"/>
<path fill-rule="evenodd" clip-rule="evenodd" d="M1130.47 703.63L1126.73 705.871C1126.02 704.693 1125.27 703.516 1124.6 702.3C1116.07 687.371 1107.51 672.443 1099.14 657.4C1098.59 656.147 1097.66 655.104 1096.5 654.421C1095.33 653.738 1093.97 653.451 1092.63 653.601C1076.07 653.601 1059.47 653.601 1042.9 653.601H1037.67V649.195H1096.89C1106.76 631.797 1116.67 614.437 1126.62 596.887L1130.36 599.014C1120.45 616.526 1110.58 633.886 1100.63 651.398C1110.73 668.91 1120.6 686.156 1130.47 703.63ZM1100.56 651.512C1099.7 650.79 1099.1 649.916 1098.54 649.954C1097.98 649.992 1097.42 650.828 1096.86 651.322C1097.34 651.892 1097.79 652.841 1098.35 652.917C1098.91 652.993 1099.44 652.196 1100.41 651.512H1100.56Z" fill="white"/>
<path fill-rule="evenodd" clip-rule="evenodd" d="M220.523 49.119V53.6394H215.588C198.875 53.6394 181.937 53.6394 165.411 53.6394C164.065 53.4868 162.706 53.7725 161.53 54.4552C160.354 55.1379 159.422 56.1824 158.868 57.438C150.493 72.6326 141.931 87.3714 133.443 102.338C132.733 103.554 131.985 104.731 131.237 106.137L127.498 103.896C137.369 86.5357 147.203 69.1759 157.148 51.6261L127.61 -0.871207L131.349 -3.15039L161.261 49.119H220.523ZM161.934 51.2843C160.962 50.6765 160.289 49.9167 159.728 49.9927C159.167 50.0687 158.756 51.0183 158.232 51.5502C158.793 52.082 159.354 52.9556 159.915 52.9556C160.476 52.9556 161.037 52.082 161.934 51.2843Z" fill="white"/>
<path fill-rule="evenodd" clip-rule="evenodd" d="M895.402 599.09L899.141 596.811L929.053 649.156H988.465V653.601H983.267C966.517 653.601 949.804 653.601 933.091 653.601C931.809 653.459 930.515 653.731 929.394 654.379C928.273 655.027 927.382 656.017 926.847 657.209C918.397 672.404 909.76 687.409 901.198 702.452C900.562 703.553 899.889 704.617 899.141 705.946L895.402 703.705L925.314 651.397L895.402 599.09ZM929.763 651.511C928.866 650.79 928.268 649.916 927.744 649.954C927.221 649.992 926.623 650.828 926.024 651.321C926.548 651.891 926.996 652.841 927.557 652.917C928.118 652.993 928.791 652.195 929.801 651.511H929.763Z" fill="white"/>
<path fill-rule="evenodd" clip-rule="evenodd" d="M332.99 51.4363L362.64 103.668L358.901 105.947C358.191 104.732 357.443 103.592 356.77 102.377C348.245 87.4097 339.683 72.519 331.308 57.4762C330.756 56.2273 329.829 55.1875 328.661 54.5053C327.493 53.8231 326.142 53.5334 324.802 53.6775C308.238 53.6775 291.638 53.6775 275.074 53.6775H269.952V49.2331H329.177L359.088 -3.03662L362.827 -0.94734C352.807 16.5645 342.936 33.9245 332.99 51.4363ZM332.579 51.4363C331.719 50.7146 331.158 49.8409 330.56 49.8409C329.962 49.8409 329.438 50.7146 328.877 51.2084C329.363 51.7782 329.812 52.7279 330.373 52.8038C330.934 52.8798 331.607 52.234 332.579 51.7782V51.4363Z" fill="white"/>
<path fill-rule="evenodd" clip-rule="evenodd" d="M525.771 53.6395V49.1951H585.07L614.982 -3.03662L618.721 -0.947342L588.809 51.4743L618.721 103.668L615.206 105.909C614.533 104.884 613.86 103.858 613.225 102.794C604.812 87.9415 596.25 73.2026 588.024 58.2359C587.324 56.6726 586.155 55.3748 584.684 54.5286C583.213 53.6823 581.516 53.3312 579.836 53.5255C563.422 53.7915 546.971 53.5255 530.519 53.5255L525.771 53.6395ZM586.491 53.6395C587.164 52.6518 587.949 52.0061 587.875 51.4363C587.761 51.0807 587.555 50.7626 587.279 50.5154C587.002 50.2682 586.666 50.1008 586.304 50.0308C585.966 50.156 585.663 50.3634 585.422 50.6349C585.181 50.9064 585.009 51.2337 584.921 51.5882C585.07 52.12 585.781 52.7278 586.491 53.6015V53.6395Z" fill="white"/>
<path fill-rule="evenodd" clip-rule="evenodd" d="M525.771 653.601V649.157H585.07L614.982 596.925L618.721 599.014C608.813 616.488 598.979 633.848 588.996 651.398L618.721 703.63L614.982 705.871C614.272 704.731 613.524 703.554 612.851 702.376C604.476 687.675 596.026 673.013 587.837 658.198C587.151 656.623 585.985 655.315 584.51 654.466C583.035 653.618 581.331 653.275 579.649 653.487C563.385 653.753 547.045 653.487 530.744 653.487L525.771 653.601ZM586.267 653.601C587.015 652.727 587.875 652.12 587.875 651.55C587.819 651.193 587.639 650.868 587.368 650.633C587.098 650.399 586.754 650.27 586.398 650.27C586.042 650.27 585.698 650.399 585.427 650.633C585.156 650.868 584.977 651.193 584.921 651.55C584.846 651.968 585.631 652.576 586.267 653.563V653.601Z" fill="white"/>
<path fill-rule="evenodd" clip-rule="evenodd" d="M476.417 649.195V653.601H471.332C454.618 653.601 437.905 653.601 421.192 653.601C419.911 653.465 418.62 653.74 417.5 654.387C416.38 655.034 415.488 656.021 414.948 657.21C406.498 672.405 397.861 687.409 389.299 702.49C388.663 703.592 387.99 704.656 387.243 705.909L383.504 703.706C393.374 686.384 403.171 669.138 413.191 651.474C403.37 634.203 393.474 616.767 383.504 599.166L387.243 596.887L417.154 649.271L476.417 649.195ZM417.902 651.284C416.93 650.638 416.257 649.878 415.696 649.954C415.135 650.03 414.687 650.942 414.2 651.512C414.761 652.006 415.322 652.917 415.883 652.917C416.444 652.917 417.005 651.968 417.902 651.284Z" fill="white"/>
<path fill-rule="evenodd" clip-rule="evenodd" d="M359.013 596.849L362.752 599.052L333.065 651.398L362.715 703.63L359.2 705.871C358.565 704.845 357.854 703.858 357.256 702.794C348.619 687.599 339.907 672.405 331.382 657.21C330.874 655.992 330.001 654.97 328.886 654.287C327.771 653.605 326.472 653.298 325.176 653.411C308.425 653.411 291.712 653.411 274.999 653.411H269.839V648.967H274.401C291.376 648.967 308.388 648.967 325.4 648.967C326.611 649.085 327.828 648.81 328.876 648.182C329.923 647.555 330.749 646.606 331.233 645.472C339.571 630.581 348.058 615.766 356.471 600.951C357.293 599.736 358.153 598.292 359.013 596.849ZM330.56 649.309C329.849 650.182 328.952 650.752 328.99 651.322C329.027 651.892 329.849 652.461 330.373 653.031C330.934 652.537 331.831 652.082 331.943 651.512C332.055 650.942 331.233 650.258 330.56 649.309Z" fill="white"/>
<path fill-rule="evenodd" clip-rule="evenodd" d="M669.196 51.4366C659.213 33.8108 649.38 16.5648 639.472 -0.871104L643.211 -3.1123C647.398 4.21913 651.511 11.4366 655.587 18.6541C660.634 27.5049 665.794 36.2419 670.542 45.2447C671.15 46.627 672.18 47.773 673.481 48.5122C674.781 49.2514 676.281 49.5443 677.759 49.3473C694.359 49.3473 710.923 49.3473 727.524 49.3473H732.31V53.3739C731.855 53.5628 731.377 53.6905 730.889 53.7537H710.811C699.818 53.7537 688.788 53.7537 677.796 53.7537C676.315 53.5659 674.814 53.8671 673.515 54.6127C672.215 55.3583 671.186 56.5089 670.58 57.8943C662.317 72.8231 653.792 87.5999 645.342 102.415C644.669 103.63 643.921 104.846 643.136 106.213L639.397 104.01L669.196 51.4366ZM673.833 51.4366C672.973 50.6768 672.412 49.8411 671.851 49.8411C671.29 49.8411 670.692 50.7148 670.131 51.2086C670.617 51.7784 671.066 52.7281 671.627 52.8041C672.188 52.8801 672.861 52.2343 673.833 51.7785V51.4366Z" fill="white"/>
<path fill-rule="evenodd" clip-rule="evenodd" d="M73.2458 649.195C83.2662 631.607 93.0622 614.323 103.157 596.887L106.896 599.014L76.9847 651.398C86.9303 668.872 96.7638 686.27 106.635 703.63C105.363 704.466 104.316 705.111 102.896 705.871C102.185 704.693 101.437 703.516 100.764 702.3C92.277 687.371 83.7149 672.443 75.3396 657.438C74.783 656.193 73.8557 655.156 72.6886 654.474C71.5214 653.793 70.1731 653.501 68.8339 653.639C52.2329 653.639 35.6694 653.639 19.0685 653.639H13.834V649.233L73.2458 649.195ZM76.6109 651.512C75.7509 650.79 75.1527 649.916 74.6292 649.916C74.1058 649.916 73.4701 650.828 72.9093 651.322C73.4328 651.892 73.844 652.841 74.4049 652.917C74.9657 652.993 75.6387 652.196 76.5735 651.512H76.6109Z" fill="white"/>
<path fill-rule="evenodd" clip-rule="evenodd" d="M1056.92 574.285H1116.3V578.501H1111.59C1094.73 578.501 1077.94 578.501 1061 578.501C1059.7 578.376 1058.4 578.678 1057.28 579.362C1056.16 580.046 1055.29 581.075 1054.79 582.3C1046.49 597.191 1038.01 612.006 1029.56 626.821C1028.81 628.188 1028.02 629.518 1027.13 631.037L1023.39 628.796L1053 576.602L1023.39 524.408L1027.13 522.091L1056.92 574.285ZM1055.5 578.349C1056.25 577.514 1056.96 577.02 1057.11 576.374C1057.26 575.728 1056.33 575.007 1055.95 575.044C1055.6 575.1 1055.26 575.234 1054.96 575.438C1054.67 575.641 1054.42 575.909 1054.23 576.222C1054.08 576.64 1054.91 577.4 1055.5 578.349Z" fill="white"/>
<path fill-rule="evenodd" clip-rule="evenodd" d="M844.889 51.4743L874.539 103.668L870.8 105.947C870.09 104.77 869.342 103.592 868.669 102.377C860.219 87.5617 851.694 72.7849 843.431 57.8561C842.839 56.4669 841.829 55.3038 840.546 54.5328C839.263 53.7619 837.774 53.4226 836.29 53.5636C819.876 53.5636 803.425 53.5636 786.973 53.5636H781.701V49.2711H840.926L870.838 -3.03662L874.577 -0.94734L844.889 51.4743ZM842.459 49.3471C841.711 50.2208 840.851 50.8285 840.889 51.3604C840.926 51.8922 841.749 52.4999 842.272 53.0697C842.796 52.5759 843.73 52.1201 843.843 51.5503C843.955 50.9805 843.057 50.3347 842.459 49.3471Z" fill="white"/>
<path fill-rule="evenodd" clip-rule="evenodd" d="M1100.82 51.4744L1130.47 103.668L1126.73 105.947C1126.02 104.77 1125.27 103.592 1124.6 102.377C1116.22 87.6757 1107.77 73.0128 1099.62 58.2361C1099.01 56.7021 1097.91 55.4152 1096.51 54.5717C1095.1 53.7281 1093.47 53.3742 1091.85 53.5637C1075.4 53.7916 1058.94 53.5637 1042.53 53.5637H1037.63C1037.63 52.0443 1037.63 50.7527 1037.44 49.1953H1096.86L1126.77 -3.1123L1130.51 -1.02306L1100.82 51.4744ZM1100.41 51.4744C1099.51 50.7527 1098.95 49.879 1098.39 49.917C1097.83 49.955 1097.27 50.7907 1096.71 51.2845C1097.19 51.8543 1097.64 52.804 1098.2 52.88C1098.76 52.9559 1099.44 52.2342 1100.41 51.5504V51.4744Z" fill="white"/>
<path fill-rule="evenodd" clip-rule="evenodd" d="M1130.58 298.995L1100.67 351.417L1130.28 403.611L1126.54 405.966L1123.1 400.04C1114.95 385.681 1106.76 371.398 1098.73 356.963C1098.21 355.834 1097.36 354.898 1096.29 354.284C1095.23 353.671 1094 353.413 1092.78 353.544C1076.07 353.544 1059.35 353.544 1042.64 353.544H1037.44V349.328C1037.9 349.284 1038.37 349.284 1038.83 349.328H1086.09C1088.59 349.328 1091.1 349.328 1093.57 349.328C1094.59 349.449 1095.63 349.22 1096.52 348.677C1097.41 348.134 1098.09 347.307 1098.46 346.327C1106.81 331.486 1115.23 316.646 1123.7 301.806L1126.47 296.982L1130.58 298.995ZM1100.41 351.569C1099.55 350.809 1098.95 349.973 1098.43 349.973C1097.9 349.973 1097.27 350.847 1096.71 351.303C1097.19 351.911 1097.64 352.86 1098.2 352.936C1098.76 353.012 1099.44 352.215 1100.41 351.569Z" fill="white"/>
<path fill-rule="evenodd" clip-rule="evenodd" d="M874.539 403.649L870.8 405.928C870.09 404.75 869.342 403.573 868.669 402.395C860.444 387.909 852.218 373.449 843.992 359.014C840.253 352.632 842.235 353.658 834.645 353.658C818.642 353.658 802.602 353.658 786.562 353.658H781.739V349.214H841.113L870.8 296.982L874.539 299.071L844.815 351.455C854.76 368.891 864.631 386.251 874.539 403.649ZM842.459 353.582C843.095 352.594 843.917 351.911 843.843 351.341C843.711 351 843.499 350.697 843.225 350.459C842.951 350.22 842.624 350.054 842.272 349.973C841.749 349.973 840.889 350.961 840.889 351.531C840.889 352.101 841.711 352.67 842.459 353.582Z" fill="white"/>
<path fill-rule="evenodd" clip-rule="evenodd" d="M732.347 349.138V353.62H727.412C710.699 353.62 693.948 353.62 677.235 353.62C675.895 353.476 674.544 353.766 673.376 354.448C672.208 355.13 671.281 356.17 670.729 357.419C662.279 372.613 653.642 387.618 645.08 402.699C644.519 403.686 643.921 404.636 643.211 405.89L639.472 403.686C649.38 386.289 659.251 368.929 669.159 351.417L639.472 299.109L643.211 296.792L673.122 349.138H732.347ZM673.833 351.531C672.935 350.809 672.374 349.935 671.814 349.973C671.253 350.011 670.692 350.847 670.131 351.341C670.617 351.911 671.066 352.86 671.627 352.936C672.187 353.012 672.86 352.215 673.833 351.531Z" fill="white"/>
<path fill-rule="evenodd" clip-rule="evenodd" d="M525.808 353.62V349.176H530.294C547.307 349.176 564.281 349.176 581.294 349.176C582.511 349.302 583.736 349.036 584.796 348.415C585.856 347.795 586.698 346.852 587.201 345.719C595.427 330.942 603.839 316.279 612.215 301.578L614.907 296.83L618.646 298.957C608.812 316.355 598.941 333.715 588.921 351.341C598.792 368.701 608.625 386.098 618.571 403.572L615.094 405.813C614.458 404.826 613.747 403.838 613.149 402.775C604.512 387.58 595.801 372.385 587.276 357.191C586.773 355.97 585.9 354.943 584.784 354.26C583.668 353.577 582.367 353.273 581.069 353.392C564.356 353.392 547.643 353.392 530.893 353.392L525.808 353.62ZM586.528 349.328C585.78 350.201 584.92 350.771 584.92 351.341C584.92 351.911 585.818 352.48 586.304 353.05C586.865 352.556 587.762 352.101 587.874 351.531C587.986 350.961 587.164 350.277 586.528 349.328Z" fill="white"/>
<path fill-rule="evenodd" clip-rule="evenodd" d="M269.839 353.62V349.214H329.176L359.088 296.906L362.827 299.033L332.915 351.417C342.824 368.929 352.694 386.289 362.565 403.649L358.826 405.928L356.658 402.319C348.17 387.39 339.608 372.462 331.233 357.457C330.676 356.212 329.749 355.175 328.582 354.494C327.415 353.812 326.066 353.52 324.727 353.658C308.164 353.848 291.563 353.658 274.999 353.658L269.839 353.62ZM330.56 353.62C331.233 352.633 332.018 351.949 331.943 351.379C331.817 351.034 331.607 350.728 331.332 350.489C331.058 350.249 330.727 350.085 330.373 350.011C329.849 350.011 328.989 350.999 328.989 351.569C328.989 352.139 329.812 352.671 330.56 353.582V353.62Z" fill="white"/>
<path fill-rule="evenodd" clip-rule="evenodd" d="M1130.54 253.791L1126.81 256.033C1116.93 238.673 1107.03 221.313 1096.89 203.725H1037.67V199.281H1042.19C1059.17 199.281 1076.18 199.281 1093.16 199.281C1094.38 199.398 1095.6 199.124 1096.66 198.497C1097.72 197.87 1098.56 196.922 1099.06 195.786C1107.51 180.591 1116.11 165.397 1124.67 150.544L1126.84 146.745L1130.58 148.834C1120.71 166.156 1110.88 183.516 1100.86 201.18L1130.54 253.791ZM1098.17 199.319C1097.53 200.268 1096.74 200.952 1096.82 201.522C1096.94 201.863 1097.15 202.166 1097.43 202.399C1097.71 202.632 1098.04 202.788 1098.39 202.851C1098.91 202.851 1099.77 201.864 1099.77 201.332C1099.77 200.8 1098.91 200.192 1098.17 199.319Z" fill="white"/>
<path fill-rule="evenodd" clip-rule="evenodd" d="M895.402 449.119L899.141 446.916L901.273 450.41C909.835 465.605 918.434 480.534 926.884 495.652C927.387 496.873 928.26 497.9 929.376 498.583C930.492 499.266 931.793 499.57 933.091 499.451C949.954 499.451 966.741 499.451 983.641 499.451H988.353V503.82H983.866C966.891 503.82 949.879 503.82 932.904 503.82C931.69 503.685 930.466 503.942 929.405 504.556C928.344 505.17 927.501 506.109 926.996 507.238C918.621 522.433 910.096 537.172 901.572 552.139C900.824 553.468 900.039 554.76 899.216 556.203L895.477 554.038C905.273 536.754 915.107 519.432 925.389 501.692L895.402 449.119ZM927.744 503.478C928.342 502.528 929.165 501.844 929.053 501.312C928.937 500.969 928.734 500.662 928.465 500.422C928.196 500.182 927.87 500.018 927.52 499.945C927.17 500.055 926.854 500.257 926.605 500.531C926.355 500.804 926.181 501.139 926.099 501.502C926.174 502.034 927.034 502.604 927.819 503.478H927.744Z" fill="white"/>
<path fill-rule="evenodd" clip-rule="evenodd" d="M925.314 51.4365L895.402 -0.871195L899.141 -3.15039L929.053 49.1193H988.465V53.6397H983.567C966.704 53.6397 949.916 53.6397 932.979 53.6397C931.762 53.5136 930.536 53.7796 929.476 54.4C928.416 55.0203 927.575 55.9637 927.071 57.0965C918.621 72.2912 910.022 87.4858 901.459 102.377L899.291 106.175L895.552 103.934L925.314 51.4365ZM927.931 53.6017C928.567 52.6141 929.352 51.9303 929.315 51.3605C929.189 51.0159 928.978 50.7095 928.704 50.4702C928.429 50.231 928.099 50.0667 927.744 49.993C927.399 50.1056 927.089 50.309 926.846 50.5825C926.603 50.856 926.436 51.19 926.361 51.5504C926.174 52.1202 927.034 52.728 927.782 53.6017H927.931Z" fill="white"/>
<path fill-rule="evenodd" clip-rule="evenodd" d="M895.402 149.138L899.141 146.935C899.852 148.112 900.562 149.252 901.235 150.429C909.835 165.624 918.434 180.553 926.884 195.672C927.383 196.896 928.254 197.926 929.372 198.61C930.489 199.294 931.792 199.595 933.091 199.47C949.954 199.47 966.741 199.47 983.641 199.47H988.353V203.725H983.866C966.891 203.725 949.879 203.725 932.904 203.725C931.69 203.59 930.466 203.848 929.405 204.462C928.344 205.075 927.501 206.014 926.996 207.144C918.621 222.338 910.096 237.077 901.609 252.044L899.216 256.108L895.477 253.981C905.448 236.558 915.418 219.097 925.389 201.597L895.402 149.138ZM927.782 203.497C928.38 202.547 929.202 201.863 929.09 201.332C928.974 200.988 928.771 200.681 928.502 200.441C928.234 200.201 927.908 200.037 927.557 199.964C927.207 200.074 926.891 200.276 926.642 200.55C926.393 200.823 926.218 201.158 926.136 201.521C926.174 202.053 927.034 202.623 927.819 203.497H927.782Z" fill="white"/>
<path fill-rule="evenodd" clip-rule="evenodd" d="M1126.84 446.839L1130.58 449.005L1100.89 501.35L1130.58 553.62L1126.84 555.937C1116.93 538.501 1107.03 521.141 1096.93 503.553H1037.67V499.261H1042.31C1059.02 499.261 1075.73 499.261 1092.44 499.261C1093.84 499.436 1095.25 499.164 1096.48 498.483C1097.72 497.802 1098.71 496.745 1099.32 495.462C1107.59 480.534 1116.11 465.757 1124.52 450.942C1125.2 449.65 1125.95 448.435 1126.84 446.839ZM1100.41 501.464C1099.55 500.704 1098.95 499.831 1098.39 499.869C1097.83 499.907 1097.27 500.742 1096.74 501.236C1097.23 501.768 1097.64 502.718 1098.2 502.794C1098.76 502.87 1099.44 502.148 1100.41 501.54V501.464Z" fill="white"/>
<path fill-rule="evenodd" clip-rule="evenodd" d="M639.509 149.138L643.248 146.935C644.033 148.264 644.818 149.556 645.566 150.733C654.054 165.662 662.616 180.591 670.991 195.596C671.521 196.791 672.412 197.785 673.534 198.434C674.656 199.082 675.952 199.352 677.235 199.204C694.098 199.204 710.886 199.204 727.786 199.204H732.422V203.725H673.01C662.99 221.275 653.119 238.672 643.099 256.07L639.36 253.905L669.084 201.521L639.509 149.138ZM671.851 199.318C671.141 200.192 670.281 200.724 670.243 201.331C670.206 201.939 671.103 202.851 671.627 202.851C671.981 202.791 672.314 202.637 672.59 202.403C672.866 202.169 673.075 201.865 673.197 201.521C673.272 200.99 672.487 200.306 671.851 199.318Z" fill="white"/>
<path fill-rule="evenodd" clip-rule="evenodd" d="M525.771 203.725V199.357H530.407C547.27 199.357 564.058 199.357 580.958 199.357C582.244 199.495 583.541 199.222 584.668 198.575C585.794 197.928 586.693 196.939 587.239 195.748C595.577 180.553 604.139 165.814 612.626 150.886L614.907 147.087L618.646 149.176L588.809 201.446L618.721 253.753L614.982 256.033C605.036 238.597 595.166 221.237 585.07 203.649L525.771 203.725ZM586.529 203.725C587.164 202.775 587.949 202.092 587.875 201.56C587.819 201.203 587.639 200.878 587.368 200.643C587.098 200.409 586.754 200.28 586.398 200.28C586.042 200.28 585.698 200.409 585.427 200.643C585.156 200.878 584.977 201.203 584.921 201.56C585.07 202.054 585.781 202.623 586.529 203.497V203.725Z" fill="white"/>
<path fill-rule="evenodd" clip-rule="evenodd" d="M870.913 146.935L874.652 149.138L844.964 201.446C854.835 218.882 864.706 236.242 874.652 253.753L870.913 256.033L858.724 234.646C853.452 225.301 848.105 216.033 842.908 206.688C842.466 205.677 841.724 204.833 840.784 204.274C839.845 203.715 838.757 203.47 837.673 203.573C820.699 203.573 803.686 203.573 786.712 203.573H781.888V199.204H786.45C803.313 199.204 820.1 199.204 837 199.204C838.303 199.326 839.61 199.023 840.733 198.34C841.855 197.657 842.735 196.63 843.245 195.406C851.62 180.211 860.145 165.472 868.669 150.505C869.23 149.594 870.053 148.416 870.913 146.935ZM842.497 199.318C841.749 200.192 840.889 200.762 840.889 201.294C840.889 201.826 841.749 202.851 842.235 202.851C842.596 202.798 842.937 202.646 843.22 202.412C843.503 202.178 843.718 201.87 843.843 201.522C843.918 200.99 843.058 200.306 842.497 199.318Z" fill="white"/>
<path fill-rule="evenodd" clip-rule="evenodd" d="M417.042 203.725L387.131 256.07L383.392 253.905L413.303 201.522L383.653 149.29L387.392 147.011C388.103 148.226 388.85 149.404 389.523 150.809C398.086 166.004 406.723 180.895 415.173 196.051C415.714 197.237 416.607 198.219 417.728 198.86C418.848 199.501 420.139 199.767 421.417 199.622C438.279 199.622 455.067 199.622 471.967 199.622H476.604V203.725H417.042ZM417.902 201.408C416.893 200.724 416.22 199.964 415.696 200.04C415.173 200.116 414.687 201.028 414.201 201.598C414.761 202.091 415.285 202.927 415.883 202.965C416.481 203.003 417.005 202.053 417.902 201.332V201.408Z" fill="white"/>
<path fill-rule="evenodd" clip-rule="evenodd" d="M359.051 146.745L362.79 149.024L332.99 201.446L362.677 253.753L358.939 256.033C358.153 254.741 357.368 253.488 356.62 252.234C348.544 238.027 340.543 223.782 332.392 209.613C328.354 202.282 330.822 203.725 322.297 203.725C306.406 203.725 290.516 203.725 274.663 203.725H269.877V199.66C270.494 199.529 271.118 199.441 271.746 199.395H319.792C322.787 199.892 325.854 199.698 328.765 198.825C331.121 197.457 332.28 193.925 333.813 191.228C341.49 177.78 349.143 164.308 356.77 150.81L359.051 146.745ZM332.579 201.408C331.682 200.648 331.121 199.812 330.56 199.812C329.999 199.812 329.438 200.686 328.877 201.18C329.364 201.712 329.812 202.661 330.373 202.737C330.934 202.813 331.607 202.206 332.579 201.56V201.408Z" fill="white"/>
<path fill-rule="evenodd" clip-rule="evenodd" d="M127.573 149.1L131.312 146.935L138.79 160.192C145.557 172.082 152.362 183.934 158.98 195.9C159.488 197.029 160.33 197.969 161.389 198.589C162.448 199.208 163.671 199.477 164.888 199.356C181.75 199.356 198.538 199.356 215.438 199.356H220.261C220.261 200.762 220.261 201.939 220.486 203.535H161.223C151.203 221.085 141.332 238.445 131.312 256.033L127.573 253.867L157.26 201.522L127.573 149.1ZM159.99 199.318C159.242 200.192 158.382 200.724 158.345 201.332C158.307 201.939 159.204 202.851 159.728 202.851C160.082 202.792 160.415 202.637 160.691 202.403C160.967 202.17 161.177 201.865 161.298 201.522C161.373 200.99 160.588 200.306 159.99 199.318Z" fill="white"/>
<path fill-rule="evenodd" clip-rule="evenodd" d="M77.0222 201.446L106.709 253.753L102.97 255.995C102.223 254.779 101.437 253.525 100.727 252.196C92.1649 237.001 83.5279 222.073 75.0779 206.954C74.5779 205.821 73.7359 204.879 72.6738 204.264C71.6118 203.649 70.3848 203.394 69.1704 203.535C52.3451 203.535 35.5199 203.535 18.6199 203.535H13.7966V199.167H18.6199C35.4825 199.167 52.2704 199.167 69.1704 199.167C70.4671 199.279 71.7657 198.973 72.8805 198.291C73.9952 197.608 74.8691 196.585 75.377 195.368C83.7523 180.173 92.3144 165.434 100.802 150.468C101.475 149.252 102.223 148.074 103.008 146.669L106.747 148.796L77.0222 201.446ZM74.6292 199.318C73.8815 200.192 73.0215 200.762 73.0589 201.332C73.0963 201.902 73.8814 202.851 74.4049 202.851C74.7594 202.792 75.0919 202.637 75.3679 202.403C75.644 202.17 75.8536 201.865 75.9753 201.522C76.0874 200.952 75.2649 200.306 74.6292 199.318Z" fill="white"/>
<path fill-rule="evenodd" clip-rule="evenodd" d="M870.912 446.839L874.651 448.967L844.964 501.312L874.614 553.582L870.875 555.899L840.964 503.516H781.701V499.261H786.338C803.051 499.261 819.764 499.261 836.477 499.261C837.871 499.442 839.286 499.172 840.52 498.491C841.755 497.809 842.748 496.749 843.356 495.462C851.694 480.268 860.294 465.529 868.781 450.6C869.454 449.309 870.202 448.131 870.912 446.839ZM844.478 501.426C843.581 500.667 843.02 499.793 842.459 499.793C841.898 499.793 841.337 500.705 840.777 501.198C841.263 501.73 841.711 502.68 842.272 502.756C842.833 502.832 843.469 502.148 844.478 501.54V501.426Z" fill="white"/>
<path fill-rule="evenodd" clip-rule="evenodd" d="M618.72 449.118L588.809 501.426L618.72 553.734L614.982 555.975C614.234 554.76 613.449 553.506 612.701 552.176C604.139 536.982 595.539 522.053 587.089 506.934C586.589 505.801 585.747 504.859 584.685 504.244C583.623 503.63 582.396 503.374 581.181 503.515C564.356 503.515 547.531 503.515 530.631 503.515H525.808V499.261H530.481C547.344 499.261 564.132 499.261 581.032 499.261C582.329 499.38 583.631 499.076 584.747 498.393C585.862 497.71 586.735 496.683 587.239 495.462C595.614 480.268 604.176 465.567 612.663 450.6C613.336 449.384 614.084 448.207 614.869 446.801L618.72 449.118ZM586.379 499.299C585.743 500.249 584.958 500.932 585.033 501.502C585.089 501.859 585.268 502.184 585.539 502.419C585.809 502.653 586.154 502.782 586.509 502.782C586.865 502.782 587.209 502.653 587.48 502.419C587.751 502.184 587.93 501.859 587.986 501.502C587.874 500.742 587.014 500.021 586.266 499.299H586.379Z" fill="white"/>
<path fill-rule="evenodd" clip-rule="evenodd" d="M77.0221 501.426C87.0051 518.938 96.8385 536.336 106.709 553.696L102.97 556.013C102.223 554.721 101.4 553.43 100.652 552.214C92.3891 537.285 84.0513 522.509 75.6013 507.618C75.0436 506.288 74.0832 505.173 72.8595 504.435C71.6359 503.698 70.2126 503.375 68.7964 503.515C52.1207 503.705 35.4076 503.515 18.6945 503.515H13.9087V499.413C14.6772 499.297 15.4509 499.221 16.2268 499.185C32.9399 499.185 49.653 499.185 66.3661 499.185C74.6665 499.185 72.4606 500.4 76.6108 493.221C84.7991 478.9 92.9126 464.541 101.063 450.22C101.699 449.119 102.372 448.055 103.083 446.877L106.821 449.043L77.0221 501.426ZM74.6292 499.299C73.9188 500.173 73.0588 500.742 73.0588 501.312C73.1214 501.668 73.2806 501.998 73.5185 502.267C73.7563 502.535 74.0633 502.731 74.4048 502.832C74.7593 502.772 75.0918 502.617 75.3678 502.384C75.6439 502.15 75.8536 501.846 75.9752 501.502C76.0873 500.932 75.2648 500.286 74.6292 499.299Z" fill="white"/>
<path fill-rule="evenodd" clip-rule="evenodd" d="M383.541 -0.871207L387.28 -3.15039L416.818 49.119H476.229V53.6394H471.369C454.656 53.6394 437.943 53.6394 421.192 53.6394C419.846 53.4868 418.487 53.7725 417.311 54.4552C416.135 55.1379 415.203 56.1824 414.649 57.438C406.311 72.6326 397.712 87.4094 389.224 102.338L387.056 106.137L383.317 103.896L412.967 51.6261L383.541 -0.871207ZM415.659 53.6014C416.406 52.7277 417.229 52.1579 417.229 51.5502C417.148 51.1983 416.982 50.8722 416.747 50.6006C416.513 50.329 416.216 50.1202 415.883 49.9927C415.524 50.0672 415.19 50.2313 414.909 50.47C414.628 50.7087 414.41 51.0146 414.275 51.3602C414.2 51.7781 415.023 52.6138 415.659 53.6014Z" fill="white"/>
<path fill-rule="evenodd" clip-rule="evenodd" d="M359.013 446.839L362.752 449.043L333.065 501.35L362.752 553.658L359.013 555.937C349.105 538.463 339.197 521.103 329.102 503.515H269.839V499.261H274.513C291.376 499.261 308.164 499.261 325.064 499.261C326.366 499.382 327.673 499.08 328.796 498.397C329.918 497.714 330.798 496.686 331.308 495.462C339.645 480.268 348.208 465.529 356.695 450.6L359.013 446.839ZM330.298 503.401C331.083 502.566 331.943 501.996 331.943 501.426C331.868 501.066 331.701 500.732 331.458 500.458C331.215 500.185 330.905 499.981 330.56 499.869C330.204 499.939 329.872 500.102 329.597 500.342C329.322 500.581 329.112 500.89 328.99 501.236C328.915 501.844 329.7 502.528 330.298 503.477V503.401Z" fill="white"/>
<path fill-rule="evenodd" clip-rule="evenodd" d="M476.417 499.261V503.592H417.042C407.059 521.217 397.151 538.577 387.131 555.937C385.859 555.253 384.85 554.645 383.392 553.81C393.225 536.45 403.058 519.09 413.303 501.426L383.653 449.195L387.392 446.916C388.103 448.093 388.85 449.309 389.523 450.486C398.086 465.681 406.723 480.61 415.135 495.728C415.677 496.924 416.575 497.915 417.702 498.563C418.83 499.211 420.129 499.482 421.417 499.337C438.279 499.337 455.067 499.337 471.967 499.337L476.417 499.261ZM417.902 501.54C417.005 500.78 416.444 499.907 415.883 499.945C415.322 499.983 414.761 500.818 414.201 501.312C414.687 501.844 415.135 502.756 415.696 502.87C416.257 502.984 416.818 502.186 417.902 501.54Z" fill="white"/>
<path fill-rule="evenodd" clip-rule="evenodd" d="M639.509 599.09L643.248 596.811C653.156 614.171 663.027 631.569 673.16 649.156H732.534V653.601H727.524C710.923 653.601 694.36 653.601 677.759 653.601C676.36 653.423 674.941 653.694 673.701 654.375C672.461 655.056 671.462 656.113 670.842 657.4C662.541 672.594 653.942 687.333 645.417 702.3C644.819 703.402 644.146 704.465 643.36 705.795L639.621 703.554C649.592 686.156 659.475 668.745 669.271 651.322L639.509 599.09ZM673.833 651.512C672.935 650.79 672.375 649.916 671.814 649.954C671.253 649.992 670.692 650.828 670.131 651.322C670.617 651.892 671.066 652.841 671.627 652.917C672.188 652.993 672.861 652.195 673.833 651.512Z" fill="white"/>
<path fill-rule="evenodd" clip-rule="evenodd" d="M220.486 649.194V653.601H215.401C198.688 653.601 181.975 653.601 165.224 653.601C163.942 653.459 162.649 653.731 161.528 654.379C160.407 655.027 159.515 656.017 158.98 657.209C150.53 672.404 141.893 687.409 133.331 702.489C132.733 703.553 132.06 704.655 131.275 705.946L127.536 703.705L157.186 651.473L127.498 599.166L131.237 596.887L161.149 649.27L220.486 649.194ZM161.934 651.284C160.962 650.638 160.289 649.84 159.765 649.954C159.242 650.068 158.756 650.942 158.27 651.512C158.793 652.005 159.354 652.917 159.915 652.917C160.476 652.917 161.037 651.967 161.934 651.284Z" fill="white"/>
<path fill-rule="evenodd" clip-rule="evenodd" d="M160.064 498.919C162.009 498.919 163.803 499.261 165.897 499.261H220.411V503.401C219.944 503.507 219.468 503.571 218.99 503.591H170.047C167.131 503.591 163.616 502.756 161.448 504.123C159.279 505.491 157.97 509.023 156.438 511.72L133.032 552.898C132.471 553.886 131.873 554.797 131.2 555.937L127.461 553.734L157.148 501.426L127.498 449.156L130.975 446.953C131.466 447.581 131.916 448.241 132.321 448.928C141.195 464.452 150.031 480.014 158.83 495.614C159.345 496.695 159.746 497.828 160.027 498.995C159.466 499.565 158.718 499.983 158.344 500.666C158.244 500.966 158.219 501.286 158.271 501.598C158.323 501.909 158.451 502.203 158.644 502.452C158.894 502.638 159.186 502.756 159.493 502.796C159.801 502.836 160.113 502.796 160.401 502.68C160.654 502.496 160.856 502.25 160.987 501.963C161.118 501.677 161.174 501.361 161.149 501.046C160.892 500.287 160.526 499.57 160.064 498.919Z" fill="white"/>
<path fill-rule="evenodd" clip-rule="evenodd" d="M671.963 498.919C673.908 498.919 675.702 499.261 677.796 499.261H732.31V503.401C731.83 503.509 731.342 503.573 730.852 503.591H681.984C679.067 503.591 675.553 502.756 673.384 504.123C671.215 505.491 669.907 509.023 668.374 511.72L644.893 552.898C644.332 553.886 643.734 554.797 643.061 555.937L639.322 553.734L669.01 501.426L639.322 449.156L642.837 446.953C643.328 447.581 643.777 448.241 644.183 448.928C653.032 464.452 661.868 480.014 670.692 495.614C671.191 496.702 671.591 497.834 671.889 498.995C671.328 499.565 670.58 499.983 670.206 500.666C670.107 500.964 670.079 501.281 670.124 501.591C670.17 501.902 670.288 502.197 670.468 502.452C670.725 502.638 671.024 502.756 671.337 502.796C671.65 502.835 671.968 502.796 672.262 502.68C672.516 502.496 672.718 502.25 672.849 501.963C672.98 501.677 673.035 501.361 673.01 501.046C672.765 500.289 672.412 499.573 671.963 498.919Z" fill="white"/>
<path fill-rule="evenodd" clip-rule="evenodd" d="M486.997 72.063L490.736 74.2283L461.086 126.46C470.957 143.782 480.753 161.066 490.699 178.54L486.96 181.009C485.838 178.995 484.679 177.21 483.595 175.121C475.519 160.914 467.368 146.745 459.441 132.462C458.889 131.213 457.963 130.173 456.795 129.491C455.626 128.809 454.276 128.519 452.936 128.663C436.073 128.853 419.285 128.663 402.348 128.663H397.786V124.864C398.12 124.66 398.487 124.518 398.87 124.447C402.609 124.447 406.087 124.447 409.713 124.447C423.66 124.447 437.606 124.447 451.515 124.447C453.261 124.675 455.034 124.326 456.57 123.45C458.105 122.574 459.322 121.218 460.04 119.584C468.078 104.845 476.491 90.3726 484.791 75.7857C485.464 74.5701 486.212 73.3545 486.997 72.063ZM458.544 124.371C457.834 125.244 456.974 125.776 457.011 126.346C457.048 126.916 457.834 127.865 458.357 127.865C458.705 127.8 459.029 127.642 459.299 127.409C459.568 127.176 459.772 126.875 459.89 126.536C459.965 126.004 459.18 125.32 458.544 124.371Z" fill="white"/>
<path fill-rule="evenodd" clip-rule="evenodd" d="M511.562 74.2665L515.301 71.9873C516.498 74.1525 517.694 76.2038 519.04 78.2931C527.117 92.5001 535.23 106.669 543.194 120.952C543.699 122.081 544.542 123.02 545.602 123.634C546.663 124.248 547.888 124.506 549.102 124.371C565.815 124.371 582.565 124.371 599.278 124.371H604.475C604.475 125.814 604.475 126.992 604.7 128.435C603.877 128.435 603.204 128.663 602.568 128.663C584.995 128.663 567.46 128.663 549.887 128.663C548.409 128.499 546.918 128.815 545.628 129.566C544.338 130.317 543.316 131.464 542.708 132.842C534.594 147.543 526.219 162.054 517.956 176.64L515.339 181.047L511.6 178.73L541.175 126.574C531.304 109.024 521.508 91.7783 511.562 74.2665ZM543.942 128.511C544.54 127.562 545.325 126.916 545.25 126.346C545.132 126.008 544.928 125.706 544.659 125.473C544.39 125.24 544.065 125.082 543.717 125.017C543.38 125.125 543.077 125.323 542.84 125.59C542.604 125.857 542.442 126.184 542.371 126.536C542.259 127.068 543.119 127.752 543.942 128.511Z" fill="white"/>
<path fill-rule="evenodd" clip-rule="evenodd" d="M716.943 126.46L746.555 178.616L743.003 180.971C742.218 179.679 741.433 178.388 740.685 177.172C732.198 162.205 723.635 147.277 715.26 132.272C714.762 131.047 713.89 130.017 712.773 129.334C711.656 128.65 710.352 128.348 709.054 128.473C692.191 128.473 675.403 128.473 658.466 128.473H653.792V124.333H658.84C675.553 124.333 692.266 124.333 708.979 124.333C710.281 124.454 711.588 124.151 712.711 123.468C713.833 122.786 714.713 121.758 715.223 120.534C723.673 105.339 732.31 90.1446 740.872 75.2919C741.508 74.1902 742.181 73.1266 742.891 71.873L746.63 74.0383L716.943 126.46ZM714.512 124.371C713.765 125.206 712.942 125.776 712.942 126.346C712.971 126.7 713.124 127.032 713.373 127.281C713.622 127.53 713.952 127.68 714.301 127.703C714.65 127.726 714.995 127.621 715.275 127.407C715.554 127.192 715.748 126.883 715.821 126.536C715.933 126.004 715.148 125.32 714.512 124.371Z" fill="white"/>
<path fill-rule="evenodd" clip-rule="evenodd" d="M998.859 72.0254L1002.6 74.3046L972.986 126.46L1002.6 178.578L998.859 180.971L986.259 158.825C981.249 150.012 976.089 141.237 971.303 132.234C970.752 130.968 969.815 129.915 968.63 129.231C967.445 128.547 966.075 128.268 964.723 128.435C948.01 128.625 931.259 128.435 914.546 128.435H909.76V124.333H914.658C931.371 124.333 948.084 124.333 964.797 124.333C966.143 124.479 967.499 124.191 968.674 123.509C969.849 122.827 970.782 121.786 971.341 120.534C979.753 105.34 988.39 90.3729 996.952 75.2922L998.859 72.0254ZM972.388 126.346C971.453 125.7 970.78 124.903 970.256 124.979C969.733 125.055 969.284 125.966 968.798 126.536C969.322 127.03 969.882 127.866 970.443 127.866C971.004 127.866 971.528 127.068 972.388 126.346Z" fill="white"/>
<path fill-rule="evenodd" clip-rule="evenodd" d="M1116.26 124.333V128.321C1115.66 128.469 1115.05 128.57 1114.43 128.625H1076.82C1071.24 128.625 1065.6 128.625 1060.1 128.625C1059.08 128.527 1058.06 128.756 1057.17 129.281C1056.29 129.806 1055.59 130.599 1055.17 131.55C1046.49 147.049 1037.67 162.472 1028.99 177.894C1028.43 178.844 1027.84 179.794 1027.2 180.933L1023.46 178.654L1053.07 126.498L1023.46 74.3422L1027.2 72.063C1027.91 73.2406 1028.66 74.4182 1029.33 75.5958C1037.89 90.7905 1046.53 105.719 1054.94 120.838C1055.46 122.065 1056.35 123.094 1057.47 123.777C1058.6 124.459 1059.92 124.76 1061.22 124.637C1077.94 124.637 1094.65 124.637 1111.36 124.637L1116.26 124.333ZM1055.77 124.333C1055.06 125.206 1054.2 125.738 1054.2 126.308C1054.22 126.662 1054.38 126.994 1054.63 127.243C1054.88 127.493 1055.21 127.642 1055.55 127.665C1055.9 127.688 1056.25 127.583 1056.53 127.369C1056.81 127.155 1057 126.846 1057.07 126.498C1057.15 126.004 1056.4 125.32 1055.77 124.371V124.333Z" fill="white"/>
<path fill-rule="evenodd" clip-rule="evenodd" d="M1027.09 481.027L1023.61 478.672C1024.25 477.457 1024.84 476.203 1025.56 474.874C1034.01 459.907 1042.46 444.94 1051.05 430.049C1051.81 428.996 1052.22 427.726 1052.22 426.422C1052.22 425.118 1051.81 423.847 1051.05 422.794C1042.49 408.055 1034.12 393.164 1025.7 378.35C1024.96 377.02 1024.21 375.653 1023.42 374.171L1026.79 372.006C1027.21 372.468 1027.6 372.963 1027.95 373.487L1053.04 417.59C1053.57 418.413 1054.05 419.276 1054.46 420.173C1054.93 421.558 1055.87 422.731 1057.1 423.488C1058.34 424.244 1059.8 424.537 1061.22 424.313C1077.79 424.123 1094.39 424.313 1110.95 424.313H1116.11V428.606H1111.55C1094.84 428.606 1078.09 428.606 1061.37 428.606C1059.89 428.455 1058.4 428.791 1057.13 429.564C1055.85 430.336 1054.85 431.505 1054.27 432.898C1046.49 446.953 1038.45 460.856 1030.53 474.684L1027.09 481.027ZM1055.77 424.427C1055.06 425.301 1054.2 425.833 1054.2 426.403C1054.22 426.757 1054.38 427.089 1054.63 427.338C1054.88 427.587 1055.21 427.737 1055.55 427.76C1055.9 427.783 1056.25 427.678 1056.53 427.463C1056.81 427.249 1057 426.94 1057.07 426.593C1057.15 425.985 1056.4 425.301 1055.77 424.351V424.427Z" fill="white"/>
<path fill-rule="evenodd" clip-rule="evenodd" d="M998.897 372.006L1002.64 374.285C992.84 391.531 983.044 408.815 973.023 426.402L1002.64 478.558L999.196 480.913C998.56 479.887 997.85 478.9 997.252 477.836C988.615 462.642 979.903 447.447 971.416 432.252C970.908 431.035 970.034 430.012 968.919 429.33C967.804 428.648 966.506 428.341 965.209 428.454C948.346 428.454 931.558 428.454 914.621 428.454H909.91V424.161H914.883C931.446 424.161 948.047 424.161 964.611 424.161C966.009 424.333 967.425 424.06 968.664 423.38C969.903 422.699 970.903 421.645 971.528 420.363C979.94 405.168 988.577 389.973 997.14 375.083L998.897 372.006ZM972.388 426.289C971.453 425.681 970.78 424.883 970.257 424.959C969.733 425.035 969.284 425.947 968.798 426.516C969.322 427.01 969.883 427.846 970.443 427.846C971.004 427.846 971.528 427.048 972.388 426.289Z" fill="white"/>
<path fill-rule="evenodd" clip-rule="evenodd" d="M860.331 424.313V428.34C859.702 428.471 859.065 428.559 858.424 428.605C842.01 428.605 825.559 428.985 809.145 428.605C806.517 428.263 803.851 428.825 801.573 430.202C799.296 431.579 797.539 433.692 796.582 436.203C789.441 449.802 781.627 462.794 774.149 476.355L771.382 481.179L767.643 478.938L797.293 426.706C787.322 409.308 777.451 391.923 767.68 374.55L771.419 372.309C772.13 373.487 772.877 374.664 773.55 375.88C781.926 390.581 790.376 405.244 798.564 420.02C799.179 421.548 800.268 422.83 801.664 423.673C803.06 424.516 804.689 424.874 806.304 424.693C822.755 424.465 839.169 424.693 855.62 424.693L860.331 424.313ZM801.742 426.516C800.882 425.794 800.359 424.959 799.798 424.959C799.237 424.959 798.676 425.832 798.153 426.326C798.639 426.858 799.05 427.77 799.611 427.846C800.172 427.922 800.807 427.162 801.929 426.516H801.742Z" fill="white"/>
<path fill-rule="evenodd" clip-rule="evenodd" d="M716.943 426.402C726.888 443.99 736.647 461.122 746.518 478.52L742.779 480.989L739.376 475.101C731.3 460.894 723.149 446.725 715.223 432.404C714.666 431.159 713.739 430.123 712.572 429.441C711.405 428.76 710.056 428.467 708.717 428.606C691.854 428.606 675.067 428.606 658.167 428.606H653.53V424.807C653.904 424.807 654.278 424.351 654.615 424.351H675.104C685.947 424.351 696.827 424.351 707.708 424.351C709.318 424.572 710.956 424.254 712.372 423.446C713.789 422.637 714.908 421.381 715.559 419.869C723.71 405.016 732.198 390.391 740.536 375.69C741.246 374.475 741.994 373.297 742.742 371.892L746.48 374.057C736.722 391.531 726.888 408.853 716.943 426.402ZM716.457 426.402C715.522 425.795 714.849 424.997 714.288 425.073C713.727 425.149 713.316 426.061 712.83 426.63C713.391 427.124 713.914 427.96 714.475 427.96C715.036 427.96 715.597 427.01 716.457 426.288V426.402Z" fill="white"/>
<path fill-rule="evenodd" clip-rule="evenodd" d="M604.363 424.314V428.112C603.779 428.291 603.177 428.406 602.568 428.454H570.114C563.01 428.454 555.906 428.454 548.802 428.454C547.653 428.329 546.494 428.578 545.493 429.165C544.492 429.752 543.7 430.647 543.231 431.721C534.482 447.371 525.584 462.908 516.76 478.445C516.348 479.204 515.862 479.888 515.339 480.762L511.6 478.521L541.212 426.327C531.391 408.98 521.521 391.594 511.6 374.171L515.339 371.968C515.974 372.993 516.685 373.981 517.283 375.045C525.92 390.239 534.594 405.434 543.119 420.629C543.634 421.849 544.514 422.873 545.636 423.555C546.757 424.238 548.061 424.543 549.363 424.427C566.076 424.238 582.789 424.427 599.502 424.427L604.363 424.314ZM545.811 426.289C544.876 425.681 544.203 424.883 543.68 424.959C543.157 425.035 542.67 425.985 542.184 426.517C542.745 427.011 543.269 427.846 543.83 427.846C544.39 427.846 544.951 427.011 545.811 426.289Z" fill="white"/>
<path fill-rule="evenodd" clip-rule="evenodd" d="M397.861 428.606V424.313H403.021C419.322 424.313 435.624 424.313 451.889 424.313C453.578 424.482 455.277 424.097 456.737 423.216C458.197 422.334 459.341 421.002 460.002 419.413C468.153 404.598 476.64 389.973 484.978 375.273C485.614 374.171 486.287 373.107 486.997 371.93L490.736 374.095L461.124 426.289L490.661 478.406L487.147 480.875C486.063 479.014 484.978 477.077 483.969 475.367C475.893 461.16 467.704 446.991 459.815 432.67C459.222 431.281 458.212 430.118 456.93 429.347C455.647 428.576 454.158 428.237 452.674 428.378C435.961 428.606 419.248 428.378 402.535 428.378L397.861 428.606ZM458.544 424.351C457.834 425.187 456.974 425.757 457.011 426.327C457.048 426.896 457.834 427.846 458.357 427.846C458.705 427.78 459.029 427.623 459.298 427.39C459.567 427.156 459.771 426.855 459.89 426.517C459.965 425.985 459.18 425.301 458.544 424.351Z" fill="white"/>
<path fill-rule="evenodd" clip-rule="evenodd" d="M259.184 481.027L255.744 478.71C256.417 477.495 257.015 476.279 257.688 474.912C266.101 460.097 274.439 445.206 283.001 430.467C283.837 429.304 284.287 427.9 284.287 426.46C284.287 425.019 283.837 423.616 283.001 422.452C274.364 407.751 266.064 392.861 257.614 378.046C256.941 376.83 256.268 375.577 255.557 374.247L258.885 372.082C259.32 372.534 259.709 373.03 260.044 373.564C268.419 388.277 276.782 402.978 285.132 417.666C285.593 418.37 286.006 419.106 286.366 419.869C286.864 421.413 287.896 422.722 289.271 423.553C290.646 424.384 292.27 424.681 293.844 424.389C310.407 424.162 327.008 424.389 343.572 424.389H348.395V428.682H343.834C327.121 428.682 310.407 428.682 293.694 428.682C292.212 428.52 290.718 428.846 289.433 429.612C288.147 430.378 287.137 431.543 286.553 432.936C278.365 447.751 269.915 462.414 261.539 477.115C260.792 478.292 259.969 479.584 259.184 481.027ZM289.694 426.289C288.759 425.681 288.086 424.883 287.563 424.959C287.039 425.035 286.59 425.947 286.104 426.517C286.628 427.01 287.189 427.846 287.749 427.846C288.31 427.846 288.983 427.048 289.694 426.289Z" fill="white"/>
<path fill-rule="evenodd" clip-rule="evenodd" d="M141.855 428.606V424.807C142.179 424.602 142.533 424.448 142.902 424.352H153.334C167.28 424.352 181.227 424.352 195.135 424.352C202.613 424.352 200.669 425.263 204.184 419.185C212.447 404.75 220.598 390.277 228.823 375.805C229.534 374.589 230.282 373.411 231.029 372.006L234.768 374.171L205.118 426.365L234.693 478.483L230.955 480.952L227.552 475.064C219.588 460.895 211.475 446.84 203.698 432.443C203.146 431.194 202.219 430.154 201.051 429.472C199.883 428.79 198.532 428.5 197.192 428.644C180.367 428.644 163.541 428.644 146.641 428.644L141.855 428.606ZM204.558 426.555C203.698 425.795 203.137 424.959 202.576 424.959C202.015 424.959 201.492 425.833 200.931 426.327C201.417 426.859 201.866 427.77 202.389 427.846C202.912 427.922 203.698 427.163 204.558 426.555Z" fill="white"/>
<path fill-rule="evenodd" clip-rule="evenodd" d="M231.029 72.063L234.768 74.2283L205.118 126.46C214.952 143.782 224.748 161.066 234.693 178.54L230.955 181.009L227.776 175.501C219.626 161.142 211.4 146.859 203.398 132.424C202.846 131.175 201.92 130.135 200.752 129.453C199.583 128.771 198.233 128.481 196.893 128.625C180.03 128.815 163.242 128.625 146.342 128.625H141.855V124.826C142.176 124.623 142.531 124.481 142.902 124.409C149.608 124.409 156.3 124.409 162.981 124.409C173.973 124.409 184.965 124.409 195.995 124.409C197.606 124.63 199.243 124.312 200.66 123.503C202.077 122.694 203.196 121.439 203.847 119.926C211.998 105.073 220.485 90.4485 228.823 75.7477C229.534 74.5701 230.282 73.3545 231.029 72.063ZM204.558 126.574C203.698 125.814 203.137 124.978 202.613 124.978C202.09 124.978 201.492 125.852 200.931 126.346C201.417 126.878 201.866 127.789 202.389 127.865C202.912 127.941 203.698 127.182 204.558 126.574Z" fill="white"/>
<path fill-rule="evenodd" clip-rule="evenodd" d="M259.221 180.933L255.482 178.616C265.328 161.294 275.199 143.909 285.095 126.46L255.669 74.3425L259.184 71.9873C259.969 73.2789 260.717 74.4564 261.39 75.786C269.952 90.9806 278.589 105.909 287.039 121.028C287.542 122.161 288.384 123.104 289.444 123.725C290.504 124.345 291.729 124.611 292.946 124.485C309.809 124.485 326.597 124.485 343.497 124.485H348.32C348.32 125.928 348.32 127.106 348.582 128.549C347.759 128.549 347.124 128.777 346.451 128.777C328.915 128.777 311.342 128.777 293.806 128.777C292.322 128.599 290.82 128.908 289.521 129.66C288.223 130.412 287.195 131.567 286.59 132.956C278.701 147.239 270.55 161.408 262.474 175.615C261.427 177.134 260.343 179.034 259.221 180.933ZM289.694 126.308C288.759 125.7 288.086 124.903 287.562 124.979C287.039 125.055 286.59 126.004 286.104 126.536C286.628 127.03 287.188 127.866 287.749 127.866C288.31 127.866 288.983 127.068 289.694 126.308Z" fill="white"/>
<path fill-rule="evenodd" clip-rule="evenodd" d="M771.083 180.933L767.531 178.54L797.143 126.422L767.531 74.2666L771.045 72.0254C771.718 73.051 772.391 74.0767 773.027 75.1403C781.664 90.335 790.338 105.53 798.863 120.724C799.368 121.952 800.247 122.983 801.37 123.667C802.494 124.35 803.803 124.65 805.107 124.523C821.97 124.523 838.758 124.523 855.695 124.523H860.331V128.512C859.728 128.656 859.116 128.757 858.499 128.815H821.708C815.875 128.815 810.005 128.815 804.172 128.815C803.15 128.705 802.12 128.929 801.232 129.456C800.345 129.982 799.645 130.782 799.237 131.74C790.513 147.214 781.788 162.662 773.064 178.084L771.083 180.933ZM799.798 128.474C800.433 127.524 801.218 126.84 801.144 126.308C801.069 125.777 800.097 124.903 799.611 124.979C799.272 125.091 798.967 125.29 798.725 125.556C798.483 125.822 798.312 126.146 798.227 126.498C798.19 127.068 799.087 127.752 799.798 128.512V128.474Z" fill="white"/>
</g>
</svg>
