<svg width="123" height="87" viewBox="0 0 123 87" fill="none" xmlns="http://www.w3.org/2000/svg">
<g clip-path="url(#clip0)">
<path d="M40.021 4.89127L2.1081 85.5185C1.69934 86.33 2.51687 87.243 3.43658 86.9383L122.285 44.0386C122.693 43.9373 123 43.5316 123 43.0245V5.29691C123 4.68836 122.489 4.28271 121.978 4.28271H40.9407C40.5319 4.28271 40.2253 4.48554 40.021 4.89127Z" fill="#EF3B4C"/>
<path d="M45.5392 10.7733H43.6998V6.31093H42.0648V16.6556H43.6998V12.1932H45.5392V16.6556H47.1742V6.31093H45.5392V10.7733ZM114.927 6.31093H113.291V16.6556H114.927V6.31093ZM49.9334 6.31093L48.2984 16.6556H49.8313L50.1379 14.7286H52.1816L52.4882 16.6556H54.1233L52.3861 6.31093H49.9334ZM50.24 13.4102L51.0575 8.13649L51.8751 13.4102H50.24ZM64.138 10.5705L63.5248 12.9031V6.31093H62.0942V16.6556H63.8314L65.1599 11.8889L65.8752 9.3535V16.6556H67.3059V6.31093H65.4664L64.138 10.5705ZM90.2988 14.1201L90.5033 7.83221H91.9341V16.757H93.5694V6.31093H88.8682L88.5616 14.1201C88.5616 15.1343 88.2551 15.2357 87.5397 15.2357V16.757H87.7441C89.5835 16.757 90.1967 15.9456 90.2988 14.1201ZM112.372 14.1201V12.8017C112.372 11.179 111.555 10.2662 109.92 10.2662H109.102V6.31093H107.467V16.6556H109.92C111.555 16.757 112.372 15.8443 112.372 14.1201ZM109.102 11.6861H109.92C110.43 11.6861 110.737 11.8889 110.737 12.7002V14.2215C110.737 14.9315 110.43 15.2357 109.92 15.2357H109.102V11.6861ZM99.8027 14.1201V12.8017C99.8027 11.179 98.985 10.2662 97.3498 10.2662H96.5321V6.31093H94.8977V16.6556H97.3498C98.985 16.757 99.8027 15.8443 99.8027 14.1201ZM96.5321 11.6861H97.3498C97.8613 11.6861 98.1674 11.8889 98.1674 12.7002V14.2215C98.1674 14.9315 97.8613 15.2357 97.3498 15.2357H96.5321V11.6861ZM102.562 12.2946H104.402V16.757H106.036V6.31093H104.402V10.7733H102.562V6.31093H100.926V16.6556H102.562V12.2946ZM60.2547 6.31093H58.6197V15.2357H56.7802V6.31093H55.1452V16.6556H59.4372V18.0755H61.0723V15.2357H60.3569V6.31093H60.2547ZM85.0871 16.757H86.7222L85.0871 6.31093H82.6345L80.9994 16.6556H82.5323L82.8389 14.7286H84.8827L85.0871 16.757ZM83.0433 13.4102L83.8608 8.13649L84.6784 13.4102H83.0433ZM120.752 7.83221V6.31093H116.255V16.6556H120.752V15.1343H117.89V12.0918H120.139V10.5705H117.89V7.62939H120.752V7.83221ZM71.087 6.20947C69.4519 6.20947 68.6344 7.1223 68.6344 8.8464V14.2215C68.6344 15.8443 69.5541 16.8584 71.087 16.8584C72.722 16.8584 73.5395 15.9456 73.5395 14.2215V8.8464C73.5395 7.1223 72.6198 6.20947 71.087 6.20947ZM71.9045 14.323C71.9045 15.0329 71.5979 15.3372 71.087 15.3372C70.576 15.3372 70.2694 15.0329 70.2694 14.323V8.74495C70.2694 8.03503 70.576 7.73076 71.087 7.73076C71.5979 7.73076 71.9045 8.03503 71.9045 8.74495V14.323ZM76.4009 12.2946H78.2403V16.757H79.8754V6.31093H78.2403V10.7733H76.4009V6.31093H74.7658V16.6556H76.4009V12.2946ZM99.4957 20.3067V18.7854H95V29.13H99.4957V27.6087H96.6344V24.5662H98.8827V23.045H96.6344V20.1038H99.4957V20.3067ZM104.402 29.13H106.138L103.89 23.3492L106.138 18.6839H104.503L102.357 23.2478V18.6839H100.723V29.0287H102.357V25.8846L102.869 24.9719L104.402 29.13ZM110.328 29.13V20.2052H112.065V18.6839H106.956V20.2052H108.693V29.13H110.328ZM117.993 26.5945V25.2762C117.993 23.6534 117.175 22.7407 115.54 22.7407H114.722V18.8868H113.088V29.2315H115.54C117.175 29.13 117.993 28.3187 117.993 26.5945ZM114.722 24.1605H115.54C116.051 24.1605 116.357 24.3633 116.357 25.1747V26.696C116.357 27.4059 116.051 27.7102 115.54 27.7102H114.722V24.1605ZM87.7441 22.7407V21.4222C87.7441 19.7996 86.9266 18.8868 85.2915 18.8868H82.8389V29.2315H84.474V25.3775H85.2915C86.9266 25.2762 87.7441 24.3633 87.7441 22.7407ZM84.5761 20.3067H85.3937C85.9047 20.3067 86.2113 20.5095 86.2113 21.3209V22.8421C86.2113 23.5521 85.9047 23.8563 85.3937 23.8563H84.5761V20.3067ZM76.4009 29.13H78.0359V20.2052H79.8754V29.13H81.5104V18.7854H76.2987V29.13H76.4009ZM118.913 29.13H120.547V18.7854H118.913V29.13ZM91.3211 18.6839C89.6857 18.6839 88.8682 19.5967 88.8682 21.3209V26.696C88.8682 28.3186 89.7879 29.3328 91.3211 29.3328C92.9555 29.3328 93.7731 28.4201 93.7731 26.696V21.3209C93.7731 19.5967 92.8541 18.6839 91.3211 18.6839ZM92.1387 26.7975C92.1387 27.5074 91.8318 27.8116 91.3211 27.8116C90.8098 27.8116 90.5033 27.5074 90.5033 26.7975V21.2194C90.5033 20.5095 90.8098 20.2052 91.3211 20.2052C91.8318 20.2052 92.1387 20.5095 92.1387 21.2194V26.7975ZM117.38 35.5193L116.767 37.852V31.2599H115.336V41.6045H117.073L118.401 36.8378L119.116 34.3023V41.6045H120.547V31.2599H118.708L117.38 35.5193ZM93.0578 31.1584C91.4225 31.1584 90.6054 32.0711 90.6054 33.7952V39.1705C90.6054 40.7931 91.5248 41.8073 93.0578 41.8073C94.6931 41.8073 95.5107 40.8946 95.5107 39.1705V33.7952C95.613 32.0711 94.6931 31.1584 93.0578 31.1584ZM93.9778 39.2718C93.9778 39.9818 93.6708 40.286 93.1601 40.286C92.6494 40.286 92.3425 39.9818 92.3425 39.2718V33.6939C92.3425 32.984 92.6494 32.6797 93.1601 32.6797C93.6708 32.6797 93.9778 32.984 93.9778 33.6939V39.2718ZM87.1309 31.2599H84.6784V41.6045H86.3134V37.7505H87.1309C88.766 37.7505 89.5835 36.8378 89.5835 35.2152V33.8967C89.5835 32.1726 88.766 31.2599 87.1309 31.2599ZM87.9485 35.3165C87.9485 36.0264 87.6419 36.3307 87.1309 36.3307H86.3134V32.781H87.1309C87.6419 32.781 87.9485 32.984 87.9485 33.7952V35.3165ZM99.1897 31.1584C97.5544 31.1584 96.7367 32.0711 96.7367 33.7952V39.1705C96.7367 40.7931 97.5544 41.8073 99.1897 41.8073C100.825 41.8073 101.642 40.8946 101.642 39.1705V37.7505H100.11V39.2718C100.11 39.9818 99.8027 40.286 99.292 40.286C98.7804 40.286 98.4743 39.9818 98.4743 39.2718V33.6939C98.4743 32.984 98.7804 32.6797 99.292 32.6797C99.8027 32.6797 100.11 32.984 100.11 33.6939V34.8094H101.642V33.7952C101.642 32.0711 100.825 31.1584 99.1897 31.1584ZM105.218 31.1584C103.584 31.1584 102.766 32.0711 102.766 33.7952V39.1705C102.766 40.7931 103.584 41.8073 105.218 41.8073C106.854 41.8073 107.671 40.8946 107.671 39.1705V37.7505H106.138V39.2718C106.138 39.9818 105.832 40.286 105.321 40.286C104.81 40.286 104.503 39.9818 104.503 39.2718V33.6939C104.503 32.984 104.81 32.6797 105.321 32.6797C105.832 32.6797 106.138 32.984 106.138 33.6939V34.8094H107.671V33.7952C107.671 32.0711 106.751 31.1584 105.218 31.1584ZM110.839 35.5193L110.226 37.852V31.2599H108.796V41.6045H110.533L111.861 36.8378L112.576 34.3023V41.6045H114.007V31.2599H112.168L110.839 35.5193Z" fill="white"/>
</g>
<defs>
<clipPath id="clip0">
<rect width="121" height="83" fill="white" transform="translate(2 4)"/>
</clipPath>
</defs>
</svg>
