<svg width="16" height="16" viewBox="0 0 16 16" fill="none" xmlns="http://www.w3.org/2000/svg">
<g clip-path="url(#clip0)">
<path d="M11.816 7.31786C11.7379 7.14515 11.5661 7.03516 11.377 7.03516H9.44733V0.763672C9.44733 0.497375 9.2312 0.28125 8.9649 0.28125H7.03522C6.76892 0.28125 6.55279 0.497375 6.55279 0.763672V7.03516H4.62311C4.434 7.03516 4.26225 7.14611 4.1841 7.31786C4.10498 7.49056 4.13586 7.69221 4.26032 7.83501L7.63728 11.6944C7.72894 11.7996 7.86112 11.8594 8.00006 11.8594C8.139 11.8594 8.27118 11.7986 8.36284 11.6944L11.7398 7.83501C11.8652 7.69318 11.8942 7.49056 11.816 7.31786Z" fill="#3E66F3"/>
<path d="M13.3066 10.8945V13.7891H2.69336V10.8945H0.763672V14.7539C0.763672 15.2875 1.19592 15.7188 1.72852 15.7188H14.2715C14.805 15.7188 15.2363 15.2875 15.2363 14.7539V10.8945H13.3066Z" fill="#3E66F3"/>
</g>
<defs>
<clipPath id="clip0">
<rect width="15.4375" height="15.4375" fill="white" transform="translate(0.28125 0.28125)"/>
</clipPath>
</defs>
</svg>
