<svg width="41" height="40" viewBox="0 0 41 40" fill="none" xmlns="http://www.w3.org/2000/svg">
<g clip-path="url(#clip0)">
<path d="M28.7938 12.143C28.7938 12.5375 28.474 12.8573 28.0795 12.8573C27.6851 12.8573 27.3652 12.5375 27.3652 12.143C27.3652 11.7485 27.6851 11.4287 28.0795 11.4287C28.474 11.4287 28.7938 11.7485 28.7938 12.143Z" fill="white"/>
<path d="M29.5082 8.57129H10.9368C9.75342 8.57129 8.79395 9.53076 8.79395 10.7141V29.2856C8.79395 30.469 9.75342 31.4284 10.9368 31.4284H29.5082C30.6916 31.4284 31.6511 30.469 31.6511 29.2856V10.7141C31.6511 9.53076 30.6916 8.57129 29.5082 8.57129ZM20.2225 27.1427C16.2776 27.1427 13.0797 23.9448 13.0797 19.9999C13.0797 16.0549 16.2776 12.857 20.2225 12.857C24.1675 12.857 27.3654 16.0549 27.3654 19.9999C27.3612 23.9431 24.1657 27.1385 20.2225 27.1427ZM28.0797 14.2856C26.8963 14.2856 25.9368 13.3261 25.9368 12.1427C25.9368 10.9593 26.8963 9.99986 28.0797 9.99986C29.263 9.99986 30.2225 10.9593 30.2225 12.1427C30.2225 13.3261 29.263 14.2856 28.0797 14.2856Z" fill="white"/>
<path d="M25.9364 19.9999C25.9364 23.156 23.3781 25.7142 20.2221 25.7142C17.0661 25.7142 14.5078 23.156 14.5078 19.9999C14.5078 16.8439 17.0661 14.2856 20.2221 14.2856C23.3781 14.2856 25.9364 16.8439 25.9364 19.9999Z" fill="white"/>
<path d="M20.2222 0C9.17655 0 0.222168 8.95438 0.222168 20C0.222168 31.0456 9.17655 40 20.2222 40C31.2678 40 40.2222 31.0456 40.2222 20C40.2096 8.95961 31.2626 0.0125558 20.2222 0ZM33.0793 29.2857C33.0769 31.2573 31.4795 32.8547 29.5079 32.8571H10.9365C8.96484 32.8547 7.36747 31.2573 7.36503 29.2857V10.7143C7.36747 8.74268 8.96484 7.1453 10.9365 7.14286H29.5079C31.4795 7.1453 33.0769 8.74268 33.0793 10.7143V29.2857Z" fill="white"/>
</g>
<defs>
<clipPath id="clip0">
<rect width="40" height="40" fill="white" transform="translate(0.222168)"/>
</clipPath>
</defs>
</svg>
