<svg width="26" height="37" viewBox="0 0 26 37" fill="none" xmlns="http://www.w3.org/2000/svg">
<path d="M25.6919 36.1079L25.0422 33.5092C24.961 33.1031 24.555 32.5346 24.2301 32.291L22.6871 31.0728C22.3622 30.8292 22.1186 30.2607 22.1186 29.8546V7.27765C22.1186 6.87158 22.281 6.22189 22.3622 5.81583L23.7429 2.32371C23.9053 1.91764 23.8241 1.26795 23.4992 1.10552C23.0932 0.861887 22.4435 0.699463 21.3877 0.699463C20.2507 0.699463 19.5198 0.9431 19.1138 1.18674C18.7077 1.34916 18.5453 1.75522 18.6265 1.83643C18.6265 1.91764 18.7077 1.99886 18.7077 1.99886C18.7889 2.16128 12.4544 2.72977 8.96225 7.60249C5.87619 11.9067 5.63255 13.2061 4.17073 12.394C3.84588 12.1504 3.2774 11.6631 2.87134 11.5819C2.38407 11.4195 1.73437 11.4195 0.922249 11.9879C0.5974 12.2316 0.516189 12.8001 0.759825 13.1249L14.7283 36.1892C14.9719 36.514 15.4592 36.8389 15.8653 36.8389H25.0422C25.5295 36.8389 25.8544 36.514 25.6919 36.1079ZM19.195 6.14067L16.515 30.9916C16.3526 30.8292 16.2713 30.7479 16.1089 30.5855L18.7889 6.05946C18.9513 6.05946 19.0326 6.05946 19.195 6.14067ZM13.0229 7.44007C13.1853 7.35886 13.3477 7.27764 13.5101 7.11522L11.561 24.9819C11.3986 24.8195 11.3174 24.657 11.155 24.4946L13.0229 7.44007ZM10.6677 24.0073C10.5053 23.8449 10.4241 23.6825 10.2616 23.5201L11.8859 8.17098C12.0483 8.00855 12.2107 7.92734 12.3732 7.76492L10.6677 24.0073ZM13.9974 6.87158C14.1598 6.79037 14.3222 6.70916 14.4847 6.62795L12.3732 26.0376C12.2107 25.8752 12.1295 25.7128 11.9671 25.5504L13.9974 6.87158ZM14.9719 6.46552C15.1344 6.38431 15.2968 6.38431 15.378 6.3031L13.1041 27.0934C12.9416 26.931 12.8604 26.7686 12.698 26.6061L14.9719 6.46552ZM15.9465 6.14067C16.1089 6.14067 16.2713 6.05946 16.3526 6.05946L13.9974 28.0679C13.835 27.9055 13.7538 27.7431 13.5913 27.5807L15.9465 6.14067ZM16.921 5.97825C17.0835 5.97825 17.1647 5.97825 17.3271 5.97825L14.8095 29.1237C14.6471 28.9613 14.5659 28.7989 14.4035 28.7176L16.921 5.97825ZM17.8144 5.97825C17.9768 5.97825 18.058 5.97825 18.2204 5.97825L15.6216 30.017C15.4592 29.8546 15.378 29.7734 15.2156 29.611L17.8144 5.97825ZM11.3986 8.73946L9.85558 22.9516C9.69316 22.7892 9.61195 22.6267 9.44952 22.4643L10.9113 9.22674C11.0738 9.06431 11.2362 8.90189 11.3986 8.73946ZM9.04346 21.8958C8.88104 21.7334 8.79982 21.571 8.6374 21.4086L9.85558 10.4449C10.018 10.2825 10.1804 10.0389 10.3429 9.79522L9.04346 21.8958ZM9.2871 11.257L8.23134 20.8401C8.06891 20.6776 7.9877 20.5152 7.82528 20.3528L8.79982 11.9067C8.88104 11.7443 9.04346 11.6631 9.12467 11.5007C9.12467 11.4195 9.20588 11.3383 9.2871 11.257ZM7.74407 13.1249C7.90649 12.9625 8.06891 12.8001 8.23134 12.6376L7.50043 19.7031C7.33801 19.5407 7.25679 19.3783 7.09437 19.2158L7.74407 13.1249ZM3.52104 13.7746C4.17073 14.0183 5.22649 14.3431 5.9574 14.1807C6.36346 14.0995 6.76952 13.8558 7.17558 13.6122L6.6071 18.6473C5.14528 16.617 3.9271 14.9928 3.2774 14.0995C3.03376 13.7746 3.11498 13.6934 3.52104 13.7746ZM18.3016 32.3722C18.058 32.3722 17.5707 32.0473 17.0022 31.4789L19.7635 6.3031C20.0071 6.38431 20.1695 6.38431 20.4132 6.46552L20.0883 29.3673C20.0071 29.2861 20.0883 32.3722 18.3016 32.3722Z" fill="white"/>
</svg>
