<svg width="37" height="25" viewBox="0 0 37 25" fill="none" xmlns="http://www.w3.org/2000/svg">
<path d="M34.1892 22.1744C34.2704 22.0119 34.2704 21.9307 34.2704 21.7683V7.15012C34.2704 6.41921 33.7019 5.93193 33.0522 5.93193H26.068V21.5247C26.068 21.7683 25.9868 22.0119 25.9056 22.2556H25.0934C25.0934 22.0931 25.1747 22.0119 25.1747 21.8495V1.7089C25.1747 0.977995 24.6062 0.490723 23.9565 0.490723H12.8304C12.0995 0.490723 11.6122 1.05921 11.6122 1.7089V21.8495C11.6122 22.0119 11.6122 22.0931 11.6934 22.2556H10.8813C10.8001 22.0119 10.7189 21.7683 10.7189 21.5247V5.85072H3.89708C3.16617 5.85072 2.6789 6.41921 2.6789 7.0689V21.6871C2.6789 21.8495 2.6789 21.9307 2.76011 22.0931H0.567383V24.6919H36.2195V22.0931H34.1892V22.1744ZM6.41466 17.058H4.62799V15.2713H6.41466V17.058ZM6.41466 13.8907H4.62799V12.1041H6.41466V13.8907ZM6.41466 10.8047H4.62799V9.01799H6.41466V10.8047ZM9.17587 17.058H7.3892V15.2713H9.17587V17.058ZM9.17587 13.8907H7.3892V12.1041H9.17587V13.8907ZM9.17587 10.8047H7.3892V9.01799H9.17587V10.8047ZM21.114 22.0931H15.8353V15.515H21.114V22.0931ZM18.3528 9.83012C15.9165 9.83012 13.8862 7.88102 13.8862 5.36345C13.8862 2.92709 15.8353 0.896783 18.3528 0.896783C20.7892 0.896783 22.8195 2.84587 22.8195 5.36345C22.8195 7.88102 20.7892 9.83012 18.3528 9.83012ZM29.8037 17.058H28.0171V15.2713H29.8037V17.058ZM29.8037 13.8907H28.0171V12.1041H29.8037V13.8907ZM29.8037 10.8047H28.0171V9.01799H29.8037V10.8047ZM32.565 17.058H30.7783V15.2713H32.565V17.058ZM32.565 13.8907H30.7783V12.1041H32.565V13.8907ZM32.565 10.8047H30.7783V9.01799H32.565V10.8047ZM19.4898 4.30769H21.1953V6.50042H19.4898V8.20587H17.2971V6.50042H15.5916V4.30769H17.2971V2.60224H19.4898V4.30769Z" fill="white"/>
</svg>
