<svg width="39" height="21" viewBox="0 0 39 21" fill="none" xmlns="http://www.w3.org/2000/svg">
<path d="M35.133 16.1139V12.4593L38.7063 10.5102L19.5402 0.196289L0.292969 10.5102L7.92691 14.9769V17.8193H8.00812C7.92691 17.8193 7.92691 17.9817 7.92691 18.063C7.92691 19.3624 13.1245 20.4181 19.5402 20.4181C25.956 20.4181 31.1536 19.3624 31.1536 18.063C31.1536 17.9817 31.0724 17.8193 30.9911 17.7381H31.0724V14.8957L34.4021 12.8654V16.1139C34.0772 16.2763 33.7524 16.6011 33.7524 17.0072C33.7524 17.5757 34.2396 17.9817 34.7269 17.9817C35.2954 17.9817 35.7015 17.4945 35.7015 17.0072C35.7827 16.6011 35.539 16.2763 35.133 16.1139ZM19.5402 19.5248C13.8554 19.5248 9.2263 18.8751 9.2263 18.063C9.2263 17.2508 13.8554 16.6011 19.5402 16.6011C25.2251 16.6011 29.8542 17.2508 29.8542 18.063C29.8542 18.8751 25.2251 19.5248 19.5402 19.5248ZM30.8287 12.7842C30.0978 11.972 27.3366 9.86053 19.5402 9.86053C11.7439 9.86053 8.98266 11.972 8.25176 12.8654V12.0533C8.25176 12.0533 10.4445 8.72356 19.5402 8.72356C28.636 8.72356 30.8287 12.0533 30.8287 12.0533V12.7842Z" fill="white"/>
</svg>
