<svg width="26" height="28" viewBox="0 0 26 28" fill="none" xmlns="http://www.w3.org/2000/svg">
<path d="M12.84 27.9405C12.84 25.2605 29.6509 26.9659 24.7782 17.3017C19.9055 7.55625 25.1843 4.63261 25.1843 4.63261L23.0728 1.46534C17.794 5.36352 12.84 0.328369 12.84 0.328369C12.84 0.328369 8.04851 5.36352 2.85094 1.38413L0.73942 4.63261C0.73942 4.63261 5.937 7.55625 1.06427 17.3017C-3.80846 26.9659 12.84 25.1793 12.84 27.9405ZM11.0534 11.5356L12.9212 5.85079L14.7891 11.5356H20.7988L15.8449 15.109L17.7128 20.7938L12.9212 17.3017L8.04851 20.7938L9.91639 15.109L5.12488 11.5356H11.0534Z" fill="white"/>
</svg>
