<svg width="14" height="15" viewBox="0 0 14 15" fill="none" xmlns="http://www.w3.org/2000/svg">

<path d="M10.485 2.99753C11.0292 2.99753 11.4701 2.55955 11.4701 2.01428V0.985194C11.4701 0.439436 11.0297 0 10.485 0C9.94017 0 9.50024 0.438948 9.50024 0.985194V2.01477C9.50073 2.55955 9.94065 2.99753 10.485 2.99753Z" fill="#b4b6bd"/>
<path d="M13.9849 1.70407H12.0018V2.20496C12.0018 3.03165 11.3302 3.70519 10.5021 3.70519C9.67295 3.70519 9.00282 3.03165 9.00282 2.20496V1.70407H5.00108V2.20496C5.00108 3.03165 4.32851 3.70519 3.50085 3.70519C2.67319 3.70519 2.00111 3.03213 2.00111 2.20496V1.70407L0 1.6792V14.2029H1.0008H13.0007L14 14.1999L13.9849 1.70407ZM12.9997 13.2055H1.0008V5.20493H13.0007V13.2055H12.9997Z" fill="#b4b6bd"/>
<path d="M3.4852 2.99753C4.02949 2.99753 4.47088 2.55955 4.47088 2.01428V0.985194C4.47088 0.438948 4.02949 0 3.4852 0C2.9409 0 2.50098 0.438948 2.50098 0.985194V2.01477C2.50098 2.55955 2.94041 2.99753 3.4852 2.99753Z" fill="#b4b6bd"/>
<path d="M6.57997 6.27856H5.00415V7.66954H6.57997V6.27856Z" fill="#b4b6bd"/>
<path d="M9.12904 6.27856H7.55176V7.66954H9.12904V6.27856Z" fill="#b4b6bd"/>
<path d="M11.4907 6.27856H9.91492V7.66954H11.4907V6.27856Z" fill="#b4b6bd"/>
<path d="M6.57997 8.58838H5.00415V9.97838H6.57997V8.58838Z" fill="#b4b6bd"/>
<path d="M9.12904 8.58838H7.55176V9.97838H9.12904V8.58838Z" fill="#b4b6bd"/>
<path d="M11.4907 8.58838H9.91492V9.97838H11.4907V8.58838Z" fill="#b4b6bd"/>
<path d="M6.57997 10.9441H5.00415V12.3341H6.57997V10.9441Z" fill="#b4b6bd"/>
<path d="M4.07582 8.58838H2.50098V9.97838H4.07582V8.58838Z" fill="#b4b6bd"/>
<path d="M4.07582 10.9441H2.50098V12.3341H4.07582V10.9441Z" fill="#b4b6bd"/>
<path d="M9.12904 10.9441H7.55176V12.3341H9.12904V10.9441Z" fill="#b4b6bd"/>
<path d="M11.4907 10.9441H9.91492V12.3341H11.4907V10.9441Z" fill="#b4b6bd"/>

</svg>
