<svg width="22" height="22" viewBox="0 0 22 22" fill="none" xmlns="http://www.w3.org/2000/svg">
<path d="M10.9668 19.2557H3.49168C3.06082 19.2557 2.71113 18.9059 2.71113 18.4751V3.52492C2.71113 3.09406 3.06085 2.74438 3.49168 2.74438H10.9668C11.4537 2.74438 11.8473 2.35074 11.8473 1.86383C11.8473 1.37692 11.4537 0.983203 10.9668 0.983203H3.49168C2.09031 0.983203 0.95 2.12356 0.95 3.52492V18.4751C0.95 19.8764 2.09032 21.0168 3.49168 21.0168H10.9668C11.4537 21.0168 11.8473 20.6231 11.8473 20.1362C11.8473 19.6493 11.4537 19.2557 10.9668 19.2557Z" fill="#060A22" stroke="#060A22" stroke-width="0.1"/>
<path d="M20.7877 10.373L20.7876 10.373L15.7378 5.38961C15.3925 5.0478 14.8342 5.05237 14.4927 5.39834C14.151 5.7444 14.1545 6.30184 14.5015 6.64351L18.0235 10.1193H8.47508C7.98817 10.1193 7.59453 10.513 7.59453 10.9999C7.59453 11.4868 7.98816 11.8805 8.47508 11.8805H18.0235L14.5015 15.3563C14.1545 15.698 14.1519 16.2554 14.4926 16.6014L14.4927 16.6015C14.6652 16.7757 14.8924 16.8638 15.1196 16.8638C15.3432 16.8638 15.5669 16.7793 15.7378 16.6101L20.7876 11.6268L20.7877 11.6267C20.9549 11.4613 21.05 11.2359 21.05 10.9998C21.05 10.7639 20.9557 10.5393 20.7877 10.373Z" fill="#060A22" stroke="#060A22" stroke-width="0.1"/>
</svg>
