<svg width="22" height="22" viewBox="0 0 22 22" fill="none" xmlns="http://www.w3.org/2000/svg">
<mask id="path-1-inside-1_7925:9328" fill="white">
<path fill-rule="evenodd" clip-rule="evenodd" d="M12.0227 4.80049C12.0227 2.22229 14.12 0.125 16.6982 0.125C19.2764 0.125 21.3737 2.22229 21.3737 4.80049C21.3737 7.19968 17.6226 11.449 17.1951 11.9259C17.0682 12.0662 16.8879 12.1477 16.6982 12.1477C16.5085 12.1477 16.3282 12.0662 16.2013 11.9259C15.7738 11.449 12.0227 7.19968 12.0227 4.80049ZM13.3586 4.80049C13.3586 6.07489 15.2395 8.73057 16.6982 10.4605C18.157 8.73057 20.0378 6.07356 20.0378 4.80049C20.0378 2.95968 18.539 1.46085 16.6982 1.46085C14.8574 1.46085 13.3586 2.95968 13.3586 4.80049ZM16.6982 2.79667C15.5935 2.79667 14.6944 3.6957 14.6944 4.80045C14.6944 5.90521 15.5935 6.80423 16.6982 6.80423C17.803 6.80423 18.702 5.90521 18.702 4.80045C18.702 3.6957 17.803 2.79667 16.6982 2.79667ZM16.6982 5.46838C16.3295 5.46838 16.0303 5.16915 16.0303 4.80045C16.0303 4.43176 16.3295 4.13253 16.6982 4.13253C17.0669 4.13253 17.3661 4.43176 17.3661 4.80045C17.3661 5.16915 17.0669 5.46838 16.6982 5.46838ZM20.7057 9.47598C20.337 9.47598 20.0378 9.77521 20.0378 10.1439V17.7075L14.6944 19.8449V12.8156C14.6944 12.4469 14.3952 12.1477 14.0265 12.1477C13.6578 12.1477 13.3585 12.4469 13.3585 12.8156V19.8436L8.01512 17.7062V7.12354L11.1103 8.36188C11.4483 8.49813 11.841 8.33249 11.9786 7.98917C12.1162 7.64719 11.9492 7.25846 11.6059 7.12087L7.60769 5.52051H7.60635L7.59567 5.5165C7.4367 5.45238 7.25903 5.45238 7.10006 5.5165L7.08804 5.52051H7.08671L0.419458 8.18821C0.166982 8.28974 0 8.5342 0 8.80805V20.8308C0 21.0525 0.110876 21.2596 0.293888 21.3838C0.4061 21.4599 0.535677 21.4987 0.667927 21.4987C0.752086 21.4987 0.836245 21.4826 0.916396 21.4506L7.3472 18.8791L13.766 21.4466H13.7673L13.7793 21.4519C13.9383 21.516 14.116 21.516 14.2749 21.4519L14.287 21.4466H14.2883L20.9555 18.7802C21.2067 18.6774 21.3737 18.4329 21.3737 18.159V10.1439C21.3737 9.77521 21.0744 9.47598 20.7057 9.47598ZM6.67927 17.7062L1.33585 19.8436V9.25957L6.67927 7.1222V17.7062Z"/>
</mask>
<path fill-rule="evenodd" clip-rule="evenodd" d="M12.0227 4.80049C12.0227 2.22229 14.12 0.125 16.6982 0.125C19.2764 0.125 21.3737 2.22229 21.3737 4.80049C21.3737 7.19968 17.6226 11.449 17.1951 11.9259C17.0682 12.0662 16.8879 12.1477 16.6982 12.1477C16.5085 12.1477 16.3282 12.0662 16.2013 11.9259C15.7738 11.449 12.0227 7.19968 12.0227 4.80049ZM13.3586 4.80049C13.3586 6.07489 15.2395 8.73057 16.6982 10.4605C18.157 8.73057 20.0378 6.07356 20.0378 4.80049C20.0378 2.95968 18.539 1.46085 16.6982 1.46085C14.8574 1.46085 13.3586 2.95968 13.3586 4.80049ZM16.6982 2.79667C15.5935 2.79667 14.6944 3.6957 14.6944 4.80045C14.6944 5.90521 15.5935 6.80423 16.6982 6.80423C17.803 6.80423 18.702 5.90521 18.702 4.80045C18.702 3.6957 17.803 2.79667 16.6982 2.79667ZM16.6982 5.46838C16.3295 5.46838 16.0303 5.16915 16.0303 4.80045C16.0303 4.43176 16.3295 4.13253 16.6982 4.13253C17.0669 4.13253 17.3661 4.43176 17.3661 4.80045C17.3661 5.16915 17.0669 5.46838 16.6982 5.46838ZM20.7057 9.47598C20.337 9.47598 20.0378 9.77521 20.0378 10.1439V17.7075L14.6944 19.8449V12.8156C14.6944 12.4469 14.3952 12.1477 14.0265 12.1477C13.6578 12.1477 13.3585 12.4469 13.3585 12.8156V19.8436L8.01512 17.7062V7.12354L11.1103 8.36188C11.4483 8.49813 11.841 8.33249 11.9786 7.98917C12.1162 7.64719 11.9492 7.25846 11.6059 7.12087L7.60769 5.52051H7.60635L7.59567 5.5165C7.4367 5.45238 7.25903 5.45238 7.10006 5.5165L7.08804 5.52051H7.08671L0.419458 8.18821C0.166982 8.28974 0 8.5342 0 8.80805V20.8308C0 21.0525 0.110876 21.2596 0.293888 21.3838C0.4061 21.4599 0.535677 21.4987 0.667927 21.4987C0.752086 21.4987 0.836245 21.4826 0.916396 21.4506L7.3472 18.8791L13.766 21.4466H13.7673L13.7793 21.4519C13.9383 21.516 14.116 21.516 14.2749 21.4519L14.287 21.4466H14.2883L20.9555 18.7802C21.2067 18.6774 21.3737 18.4329 21.3737 18.159V10.1439C21.3737 9.77521 21.0744 9.47598 20.7057 9.47598ZM6.67927 17.7062L1.33585 19.8436V9.25957L6.67927 7.1222V17.7062Z" fill="#fff"/>
<path d="M17.1951 11.9259L17.2693 11.993L17.2696 11.9927L17.1951 11.9259ZM16.2013 11.9259L16.1268 11.9927L16.1271 11.993L16.2013 11.9259ZM16.6982 10.4605L16.6218 10.525L16.6982 10.6156L16.7747 10.525L16.6982 10.4605ZM20.0378 17.7075L20.075 17.8004L20.1378 17.7752V17.7075H20.0378ZM14.6944 19.8449H14.5944V19.9926L14.7315 19.9377L14.6944 19.8449ZM13.3585 19.8436L13.3214 19.9364L13.4585 19.9913V19.8436H13.3585ZM8.01512 17.7062H7.91512V17.7739L7.97799 17.799L8.01512 17.7062ZM8.01512 7.12354L8.05227 7.03069L7.91512 6.97582V7.12354H8.01512ZM11.1103 8.36188L11.1477 8.26913L11.1474 8.26903L11.1103 8.36188ZM11.9786 7.98917L11.8858 7.95185L11.8858 7.95197L11.9786 7.98917ZM11.6059 7.12087L11.6431 7.02804L11.6431 7.02803L11.6059 7.12087ZM7.60769 5.52051L7.64485 5.42767L7.62696 5.42051H7.60769V5.52051ZM7.60635 5.52051L7.57124 5.61414L7.58822 5.62051H7.60635V5.52051ZM7.59567 5.5165L7.55825 5.60927L7.56055 5.61013L7.59567 5.5165ZM7.10006 5.5165L7.13175 5.61155L7.13747 5.60924L7.10006 5.5165ZM7.08804 5.52051V5.62051H7.10427L7.11967 5.61538L7.08804 5.52051ZM7.08671 5.52051V5.42051H7.06744L7.04956 5.42767L7.08671 5.52051ZM0.419458 8.18821L0.382309 8.09537L0.38215 8.09543L0.419458 8.18821ZM0.293888 21.3838L0.237723 21.4665L0.237738 21.4665L0.293888 21.3838ZM0.916396 21.4506L0.879267 21.3577L0.879257 21.3577L0.916396 21.4506ZM7.3472 18.8791L7.38434 18.7862L7.3472 18.7714L7.31007 18.7862L7.3472 18.8791ZM13.766 21.4466L13.7288 21.5394L13.7467 21.5466H13.766V21.4466ZM13.7673 21.4466L13.8079 21.3552L13.7885 21.3466H13.7673V21.4466ZM13.7793 21.4519L13.7387 21.5434L13.7419 21.5447L13.7793 21.4519ZM14.2749 21.4519L14.3124 21.5447L14.3155 21.5433L14.2749 21.4519ZM14.287 21.4466V21.3466H14.2657L14.2464 21.3552L14.287 21.4466ZM14.2883 21.4466V21.5466H14.3075L14.3254 21.5394L14.2883 21.4466ZM20.9555 18.7802L20.9927 18.8731L20.9934 18.8728L20.9555 18.7802ZM1.33585 19.8436H1.23585V19.9913L1.37299 19.9364L1.33585 19.8436ZM6.67927 17.7062L6.71641 17.799L6.77927 17.7739V17.7062H6.67927ZM1.33585 9.25957L1.29871 9.16672L1.23585 9.19187V9.25957H1.33585ZM6.67927 7.1222H6.77927V6.9745L6.64213 7.02935L6.67927 7.1222ZM16.6982 0.025C14.0648 0.025 11.9227 2.16706 11.9227 4.80049H12.1227C12.1227 2.27752 14.1752 0.225 16.6982 0.225V0.025ZM21.4737 4.80049C21.4737 2.16706 19.3316 0.025 16.6982 0.025V0.225C19.2212 0.225 21.2737 2.27752 21.2737 4.80049H21.4737ZM17.2696 11.9927C17.4844 11.753 18.5321 10.568 19.5268 9.14126C20.024 8.42796 20.5095 7.65215 20.871 6.90237C21.2314 6.15478 21.4737 5.42296 21.4737 4.80049H21.2737C21.2737 5.37761 21.0471 6.07667 20.6908 6.81551C20.3357 7.55215 19.8566 8.31833 19.3627 9.02688C18.3749 10.4439 17.3333 11.6219 17.1207 11.8592L17.2696 11.9927ZM16.6982 12.2477C16.9166 12.2477 17.1238 12.1539 17.2693 11.993L17.121 11.8588C17.0127 11.9785 16.8592 12.0477 16.6982 12.0477V12.2477ZM16.1271 11.993C16.2727 12.1539 16.4798 12.2477 16.6982 12.2477V12.0477C16.5372 12.0477 16.3837 11.9785 16.2754 11.8588L16.1271 11.993ZM11.9227 4.80049C11.9227 5.42296 12.165 6.15478 12.5254 6.90237C12.8869 7.65215 13.3724 8.42796 13.8697 9.14126C14.8643 10.568 15.912 11.753 16.1268 11.9927L16.2757 11.8592C16.0631 11.6219 15.0215 10.4439 14.0337 9.02688C13.5398 8.31833 13.0608 7.55215 12.7056 6.81551C12.3493 6.07667 12.1227 5.37761 12.1227 4.80049H11.9227ZM16.7747 10.396C16.0474 9.53359 15.2155 8.441 14.566 7.4065C14.2413 6.88919 13.9633 6.38826 13.7669 5.93916C13.5694 5.48779 13.4586 5.09816 13.4586 4.80049H13.2586C13.2586 5.14002 13.3828 5.56025 13.5836 6.01931C13.7854 6.48063 14.0689 6.99069 14.3967 7.51284C15.0523 8.55727 15.8903 9.65748 16.6218 10.525L16.7747 10.396ZM19.9378 4.80049C19.9378 5.09782 19.827 5.48727 19.6295 5.93859C19.4331 6.38764 19.1551 6.88861 18.8304 7.40601C18.1809 8.44068 17.349 9.5336 16.6218 10.396L16.7747 10.525C17.5062 9.65747 18.3441 8.55693 18.9998 7.51234C19.3276 6.99011 19.611 6.48001 19.8128 6.01875C20.0136 5.55977 20.1378 5.1397 20.1378 4.80049H19.9378ZM16.6982 1.56085C18.4838 1.56085 19.9378 3.01491 19.9378 4.80049H20.1378C20.1378 2.90445 18.5942 1.36085 16.6982 1.36085V1.56085ZM13.4586 4.80049C13.4586 3.01491 14.9126 1.56085 16.6982 1.56085V1.36085C14.8022 1.36085 13.2586 2.90445 13.2586 4.80049H13.4586ZM14.7944 4.80045C14.7944 3.75093 15.6487 2.89667 16.6982 2.89667V2.69667C15.5382 2.69667 14.5944 3.64047 14.5944 4.80045H14.7944ZM16.6982 6.70423C15.6487 6.70423 14.7944 5.84998 14.7944 4.80045H14.5944C14.5944 5.96043 15.5382 6.90423 16.6982 6.90423V6.70423ZM18.602 4.80045C18.602 5.84998 17.7477 6.70423 16.6982 6.70423V6.90423C17.8582 6.90423 18.802 5.96043 18.802 4.80045H18.602ZM16.6982 2.89667C17.7477 2.89667 18.602 3.75093 18.602 4.80045H18.802C18.802 3.64047 17.8582 2.69667 16.6982 2.69667V2.89667ZM15.9303 4.80045C15.9303 5.22438 16.2743 5.56838 16.6982 5.56838V5.36838C16.3847 5.36838 16.1303 5.11392 16.1303 4.80045H15.9303ZM16.6982 4.03253C16.2743 4.03253 15.9303 4.37653 15.9303 4.80045H16.1303C16.1303 4.48699 16.3847 4.23253 16.6982 4.23253V4.03253ZM17.4661 4.80045C17.4661 4.37653 17.1221 4.03253 16.6982 4.03253V4.23253C17.0117 4.23253 17.2661 4.48699 17.2661 4.80045H17.4661ZM16.6982 5.56838C17.1221 5.56838 17.4661 5.22438 17.4661 4.80045H17.2661C17.2661 5.11392 17.0117 5.36838 16.6982 5.36838V5.56838ZM20.1378 10.1439C20.1378 9.83044 20.3923 9.57598 20.7057 9.57598V9.37598C20.2818 9.37598 19.9378 9.71998 19.9378 10.1439H20.1378ZM20.1378 17.7075V10.1439H19.9378V17.7075H20.1378ZM14.7315 19.9377L20.075 17.8004L20.0007 17.6147L14.6573 19.752L14.7315 19.9377ZM14.5944 12.8156V19.8449H14.7944V12.8156H14.5944ZM14.0265 12.2477C14.3399 12.2477 14.5944 12.5021 14.5944 12.8156H14.7944C14.7944 12.3917 14.4504 12.0477 14.0265 12.0477V12.2477ZM13.4585 12.8156C13.4585 12.5021 13.713 12.2477 14.0265 12.2477V12.0477C13.6025 12.0477 13.2585 12.3917 13.2585 12.8156H13.4585ZM13.4585 19.8436V12.8156H13.2585V19.8436H13.4585ZM7.97799 17.799L13.3214 19.9364L13.3957 19.7507L8.05226 17.6133L7.97799 17.799ZM7.91512 7.12354V17.7062H8.11512V7.12354H7.91512ZM11.1474 8.26903L8.05227 7.03069L7.97798 7.21638L11.0732 8.45472L11.1474 8.26903ZM11.8858 7.95197C11.7687 8.244 11.4343 8.38469 11.1477 8.26913L11.0729 8.45462C11.4622 8.61158 11.9133 8.42098 12.0714 8.02637L11.8858 7.95197ZM11.5687 7.21369C11.861 7.33086 12.0026 7.6615 11.8858 7.95185L12.0714 8.0265C12.2297 7.63289 12.0374 7.18606 11.6431 7.02804L11.5687 7.21369ZM7.57053 5.61335L11.5687 7.2137L11.6431 7.02803L7.64485 5.42767L7.57053 5.61335ZM7.60635 5.62051H7.60769V5.42051H7.60635V5.62051ZM7.56055 5.61013L7.57124 5.61414L7.64147 5.42688L7.63078 5.42287L7.56055 5.61013ZM7.13747 5.60924C7.27244 5.5548 7.42329 5.5548 7.55826 5.60924L7.63307 5.42376C7.45011 5.34996 7.24562 5.34996 7.06266 5.42376L7.13747 5.60924ZM7.11967 5.61538L7.13169 5.61137L7.06844 5.42163L7.05642 5.42564L7.11967 5.61538ZM7.08671 5.62051H7.08804V5.42051H7.08671V5.62051ZM0.456607 8.28106L7.12385 5.61335L7.04956 5.42767L0.382309 8.09537L0.456607 8.28106ZM0.1 8.80805C0.1 8.57533 0.241878 8.3674 0.456767 8.28099L0.38215 8.09543C0.0920851 8.21207 -0.1 8.49307 -0.1 8.80805H0.1ZM0.1 20.8308V8.80805H-0.1V20.8308H0.1ZM0.350053 21.3011C0.194195 21.1953 0.1 21.019 0.1 20.8308H-0.1C-0.1 21.086 0.0275565 21.3239 0.237723 21.4665L0.350053 21.3011ZM0.667927 21.3987C0.555416 21.3987 0.445449 21.3658 0.350038 21.301L0.237738 21.4665C0.36675 21.5541 0.515939 21.5987 0.667927 21.5987V21.3987ZM0.879257 21.3577C0.810894 21.3851 0.739338 21.3987 0.667927 21.3987V21.5987C0.764833 21.5987 0.861595 21.5802 0.953535 21.5434L0.879257 21.3577ZM7.31007 18.7862L0.879267 21.3577L0.953525 21.5434L7.38433 18.9719L7.31007 18.7862ZM13.8031 21.3537L7.38434 18.7862L7.31006 18.9719L13.7288 21.5394L13.8031 21.3537ZM13.7673 21.3466H13.766V21.5466H13.7673V21.3466ZM13.8199 21.3605L13.8079 21.3552L13.7267 21.538L13.7387 21.5433L13.8199 21.3605ZM14.2375 21.3592C14.1026 21.4136 13.9517 21.4136 13.8167 21.3592L13.7419 21.5447C13.9249 21.6185 14.1294 21.6185 14.3123 21.5447L14.2375 21.3592ZM14.2464 21.3552L14.2343 21.3605L14.3155 21.5433L14.3276 21.538L14.2464 21.3552ZM14.2883 21.3466H14.287V21.5466H14.2883V21.3466ZM20.9184 18.6874L14.2512 21.3537L14.3254 21.5394L20.9927 18.8731L20.9184 18.6874ZM21.2737 18.159C21.2737 18.3918 21.1317 18.6 20.9176 18.6877L20.9934 18.8728C21.2816 18.7547 21.4737 18.474 21.4737 18.159H21.2737ZM21.2737 10.1439V18.159H21.4737V10.1439H21.2737ZM20.7057 9.57598C21.0192 9.57598 21.2737 9.83044 21.2737 10.1439H21.4737C21.4737 9.71998 21.1297 9.37598 20.7057 9.37598V9.57598ZM1.37299 19.9364L6.71641 17.799L6.64213 17.6133L1.29871 19.7507L1.37299 19.9364ZM1.23585 9.25957V19.8436H1.43585V9.25957H1.23585ZM6.64213 7.02935L1.29871 9.16672L1.37299 9.35242L6.71641 7.21505L6.64213 7.02935ZM6.77927 17.7062V7.1222H6.57927V17.7062H6.77927Z" fill="#fff" mask="url(#path-1-inside-1_7925:9328)"/>
</svg>