<svg width="33" height="31" viewBox="0 0 33 31" fill="none" xmlns="http://www.w3.org/2000/svg">
<path d="M18.8148 13.1805C18.8961 13.2617 18.9773 13.343 19.1397 13.4242C19.5458 13.749 19.9518 13.9927 20.3579 14.2363C21.17 14.7236 22.0633 15.1296 22.9567 15.3733C23.85 15.6981 24.7433 15.9417 25.7179 16.023C26.2052 16.1042 26.6924 16.1042 27.1797 16.1042C27.4233 16.1042 27.667 16.1042 27.9106 16.1042C28.1542 16.1042 28.3979 16.023 28.7227 16.023C28.5603 15.7793 28.3167 15.6169 28.1542 15.4545C27.9918 15.292 27.7482 15.1296 27.5858 14.9672C27.1797 14.6424 26.7736 14.3987 26.3676 14.1551C25.5555 13.6678 24.6621 13.2617 23.7688 13.0181C22.8755 12.6933 21.9821 12.4496 21.0076 12.3684C20.5203 12.2872 20.033 12.2872 19.5458 12.2872C19.3833 12.2872 19.2209 12.2872 18.9773 12.2872C18.8961 11.3939 18.2464 10.5817 17.353 10.4193C17.4342 10.2569 17.5155 10.0945 17.5155 9.93205C17.6779 9.44478 17.7591 8.9575 17.9215 8.55144C18.0839 7.5769 18.1652 6.68356 18.1652 5.70902C18.1652 4.73447 18.0839 3.84114 17.9215 2.86659C17.8403 2.37932 17.6779 1.89205 17.5155 1.48599C17.4342 1.24235 17.353 0.998715 17.2718 0.755079C17.1906 0.511442 17.0282 0.267806 16.947 0.0241699C16.7845 0.267806 16.7033 0.511442 16.6221 0.755079C16.5409 0.998715 16.4597 1.24235 16.3785 1.48599C16.2161 1.97326 16.1348 2.46053 15.9724 2.86659C15.81 3.84114 15.7288 4.73447 15.7288 5.70902C15.7288 6.68356 15.81 7.5769 15.9724 8.55144C16.0536 9.03872 16.2161 9.52599 16.3785 9.93205C16.4597 10.0945 16.4597 10.2569 16.5409 10.4193C15.6476 10.5817 14.9979 11.3939 14.9167 12.2872C14.673 12.2872 14.4294 12.2872 14.1858 12.2872C13.6985 12.2872 13.2112 12.3684 12.7239 12.3684C11.7494 12.5308 10.8561 12.7745 9.96273 13.0181C8.98818 13.343 8.17606 13.749 7.36394 14.2363C6.95788 14.4799 6.55182 14.7236 6.14576 15.0484C5.98333 15.2108 5.7397 15.3733 5.57727 15.5357C5.41485 15.6981 5.17121 15.8605 5.00879 16.1042C5.25243 16.1854 5.49606 16.1854 5.82091 16.1854C6.06455 16.1854 6.30818 16.1854 6.55182 16.1854C7.03909 16.1854 7.52636 16.1042 8.01364 16.1042C8.98818 15.9417 9.88152 15.7793 10.7748 15.4545C11.6682 15.1296 12.5615 14.8048 13.3736 14.3175C13.7797 14.0739 14.1858 13.8302 14.5918 13.5054C14.7542 13.343 14.9167 13.2617 15.0791 13.0993C15.2415 13.6678 15.6476 14.0739 16.1348 14.3175L14.5918 30.966H19.3833L17.7591 14.3175C18.1652 13.9927 18.5712 13.6678 18.8148 13.1805ZM16.947 13.0993C16.5409 13.0993 16.1348 12.7745 16.1348 12.2872C16.1348 11.8811 16.4597 11.4751 16.947 11.4751C17.353 11.4751 17.7591 11.7999 17.7591 12.2872C17.6779 12.7745 17.353 13.0993 16.947 13.0993Z" fill="white"/>
<path d="M12.9678 21.0582C12.7241 20.8958 12.4805 20.7334 12.3181 20.5709C11.8308 20.3273 11.3435 20.0837 10.8562 19.9212C10.369 19.7588 9.8817 19.5964 9.31322 19.5152C9.06958 19.5152 8.74473 19.434 8.5011 19.434C8.41988 19.434 8.33867 19.434 8.17625 19.434C8.17625 18.9467 7.77019 18.4594 7.28291 18.3782C7.28291 18.297 7.36413 18.2158 7.36413 18.1346C7.44534 17.8909 7.52655 17.6473 7.60776 17.3225C7.68897 17.0788 7.68897 16.8352 7.68897 16.5916C7.28291 16.6728 6.79564 16.6728 6.38958 16.6728C6.38958 16.9164 6.47079 17.0788 6.47079 17.3225C6.552 17.5661 6.55201 17.8909 6.71443 18.1346C6.71443 18.2158 6.79564 18.297 6.79564 18.3782C6.30837 18.4594 5.90231 18.9467 5.90231 19.434C5.73988 19.434 5.65867 19.434 5.49625 19.434C5.25261 19.434 4.92776 19.434 4.68413 19.5152C4.11564 19.5964 3.62837 19.7588 3.14109 19.9212C2.65382 20.0837 2.16655 20.3273 1.67928 20.5709C1.43564 20.7334 1.19201 20.8146 1.02958 21.0582C0.948369 21.1394 0.785943 21.2206 0.704731 21.3019C0.623519 21.3831 0.461095 21.4643 0.379883 21.6267C0.542307 21.6267 0.704731 21.7079 0.785943 21.7079C0.948368 21.7079 1.02958 21.7079 1.192 21.7079C1.43564 21.7079 1.76049 21.7079 2.00413 21.6267C2.57261 21.5455 3.05988 21.3831 3.54716 21.2206C4.03443 21.0582 4.5217 20.8146 5.00898 20.5709C5.25261 20.4085 5.49625 20.2461 5.65867 20.0837C5.73988 20.0025 5.8211 19.9212 5.90231 19.84C5.98352 20.1649 6.22716 20.4085 6.55201 20.4897L5.65867 29.8291H8.33867L7.44534 20.4897C7.68898 20.4085 7.93261 20.1649 8.09504 19.9212C8.17625 20.0025 8.17625 20.0025 8.25746 20.0837C8.5011 20.2461 8.74473 20.4085 8.90716 20.5709C9.39443 20.8146 9.8817 21.0582 10.369 21.2206C10.8562 21.3831 11.3435 21.5455 11.912 21.6267C12.1556 21.6267 12.4805 21.7079 12.7241 21.7079C12.8865 21.7079 12.9678 21.7079 13.1302 21.7079C13.2926 21.7079 13.455 21.7079 13.5362 21.6267C13.455 21.5455 13.2926 21.3831 13.2114 21.3019C13.2114 21.2206 13.049 21.1394 12.9678 21.0582ZM7.03928 20.0025C6.79564 20.0025 6.63322 19.84 6.63322 19.5964C6.63322 19.3528 6.79564 19.1903 7.03928 19.1903C7.28291 19.1903 7.44534 19.3528 7.44534 19.5964C7.44534 19.7588 7.28291 20.0025 7.03928 20.0025Z" fill="white"/>
<path d="M7.36388 13.5054V13.4242C7.28267 13.2618 7.28267 13.1805 7.20146 13.0181C7.12024 12.8557 7.12024 12.7745 7.03903 12.6121C6.95782 12.7745 6.87661 12.8557 6.87661 13.0181C6.79539 13.1805 6.7954 13.2618 6.71418 13.4242C6.63297 13.6678 6.63297 13.8302 6.55176 13.9927C6.63297 13.9115 6.79539 13.8302 6.87661 13.749C7.03903 13.6678 7.20146 13.5866 7.36388 13.5054Z" fill="white"/>
<path d="M32.5397 21.3019C32.4585 21.2206 32.296 21.1394 32.2148 21.0582C31.9712 20.8958 31.7276 20.7334 31.5651 20.5709C31.0779 20.3273 30.5906 20.0837 30.1033 19.9212C29.616 19.7588 29.1288 19.5964 28.5603 19.5152C28.3167 19.5152 27.9918 19.434 27.7482 19.434C27.667 19.434 27.5857 19.434 27.4233 19.434C27.4233 18.9467 27.0173 18.4594 26.53 18.3782C26.53 18.297 26.6112 18.2158 26.6112 18.1346C26.6924 17.8909 26.7736 17.6473 26.8548 17.3225C26.936 17.0788 26.936 16.9164 26.936 16.6728H26.8548C26.4488 16.6728 26.0427 16.5916 25.6367 16.5916C25.6367 16.8352 25.7179 17.0788 25.7179 17.3225C25.7991 17.5661 25.7991 17.8909 25.9615 18.1346C25.9615 18.2158 26.0427 18.297 26.0427 18.3782C25.5554 18.4594 25.1494 18.9467 25.1494 19.434C24.987 19.434 24.9057 19.434 24.7433 19.434C24.4997 19.434 24.1748 19.434 23.9312 19.5152C23.3627 19.5964 22.8754 19.7588 22.3882 19.9212C21.9009 20.0837 21.4136 20.3273 20.9263 20.5709C20.6827 20.7334 20.4391 20.8146 20.2767 21.0582C20.1954 21.1394 20.033 21.2206 19.9518 21.3019C19.8706 21.3831 19.7082 21.4643 19.627 21.6267C19.7894 21.6267 19.9518 21.7079 20.033 21.7079C20.1954 21.7079 20.2767 21.7079 20.4391 21.7079C20.6827 21.7079 21.0076 21.7079 21.2512 21.6267C21.8197 21.5455 22.307 21.3831 22.7942 21.2206C23.2815 21.0582 23.7688 20.8146 24.256 20.5709C24.4997 20.4085 24.7433 20.2461 24.9057 20.0837C24.987 20.0025 25.0682 19.9212 25.1494 19.84C25.2306 20.1649 25.4742 20.4085 25.7991 20.4897L24.9057 29.8291H27.5857L26.6924 20.4897C26.936 20.4085 27.1797 20.1649 27.3421 19.9212C27.4233 20.0025 27.4233 20.0025 27.5045 20.0837C27.7482 20.2461 27.9918 20.4085 28.1542 20.5709C28.6415 20.8146 29.1288 21.0582 29.616 21.2206C30.1033 21.3831 30.5906 21.5455 31.1591 21.6267C31.4027 21.7079 31.7276 21.7079 31.9712 21.7079C32.1336 21.7079 32.2148 21.7079 32.3773 21.7079C32.5397 21.7079 32.7021 21.7079 32.7833 21.6267C32.7833 21.5455 32.6209 21.3831 32.5397 21.3019ZM26.2863 20.0025C26.0427 20.0025 25.8803 19.84 25.8803 19.5964C25.8803 19.3528 26.0427 19.1903 26.2863 19.1903C26.53 19.1903 26.6924 19.3528 26.6924 19.5964C26.6924 19.7588 26.53 20.0025 26.2863 20.0025Z" fill="white"/>
<path d="M26.774 14.1551C26.6928 13.9115 26.6928 13.6678 26.6116 13.4242C26.5304 13.2618 26.5304 13.1805 26.4492 13.0181C26.368 12.8557 26.368 12.7745 26.2868 12.6121C26.2055 12.7745 26.1243 12.8557 26.1243 13.0181C26.0431 13.1805 26.0431 13.2618 25.9619 13.4242C25.9619 13.5054 25.9619 13.5054 25.9619 13.5866C26.1243 13.6678 26.2868 13.749 26.368 13.8302C26.4492 13.9115 26.6116 13.9927 26.774 14.1551Z" fill="white"/>
</svg>
