<svg width="34" height="28" viewBox="0 0 34 28" fill="none" xmlns="http://www.w3.org/2000/svg">
<path d="M31.5141 22.9562V17.9211H30.2959V16.0532C30.2959 14.429 29.0777 13.1296 27.5347 12.8859V12.8047C27.5347 10.8556 25.9104 9.23137 23.9614 9.23137H23.8801C21.931 9.23137 20.3068 10.8556 20.3068 12.8047V19.2205H18.6014V12.3986C18.6014 11.9114 18.3577 11.5865 18.0329 11.3429C18.4389 11.1805 18.7638 10.8556 18.7638 10.3683C18.7638 9.79986 18.2765 9.3938 17.7892 9.3938H16.9771V8.41925H15.7589V9.3938H14.9468C14.3783 9.3938 13.9723 9.88107 13.9723 10.3683C13.9723 10.8556 14.2971 11.1805 14.7032 11.3429C14.3783 11.5865 14.1347 11.9114 14.1347 12.3986V19.2205H12.4292V13.0483C12.4292 12.7235 12.1856 12.4799 11.8607 12.4799H10.6426V6.0641C10.6426 4.84592 9.66802 3.95259 8.53105 3.95259V3.87138C8.53105 2.16592 7.15045 0.704102 5.36378 0.704102C3.65833 0.704102 2.19651 2.08471 2.19651 3.87138V23.0374H0.572266V27.098H33.2195V23.0374H31.5141V22.9562ZM21.525 12.8859C21.525 11.5865 22.5807 10.5308 23.8801 10.5308H24.0426C25.342 10.5308 26.3977 11.5865 26.3977 12.8859V12.9671C25.0171 13.292 23.9614 14.5914 23.9614 16.0532V17.9211H22.7432V19.3017H21.525V12.8859ZM22.7432 20.5199V22.9562H21.525V20.5199H22.7432ZM20.3068 20.5199V22.9562H18.6014V20.5199H20.3068ZM11.0486 13.6168V19.9514C11.0486 20.2762 11.2923 20.5199 11.6171 20.5199H13.8911V22.9562H10.3989V13.6168H11.0486ZM8.28741 5.00835C8.77469 5.00835 9.26196 5.4144 9.26196 5.98289V12.3986H8.28741V5.00835ZM8.28741 13.6168H9.26196V22.9562H8.28741V13.6168Z" fill="white"/>
</svg>
