<svg width="10" height="14" viewBox="0 0 10 14" fill="none" xmlns="http://www.w3.org/2000/svg">
<path d="M5.00066 0C2.4275 0 0.333984 2.09352 0.333984 4.66668C0.333984 5.43914 0.527113 6.20504 0.894258 6.88436L4.74546 13.8496C4.79673 13.9425 4.89443 14 5.00066 14C5.10689 14 5.20459 13.9425 5.25586 13.8496L9.10848 6.88207C9.47421 6.20504 9.66734 5.43911 9.66734 4.66665C9.66734 2.09352 7.57382 0 5.00066 0ZM5.00066 7C3.71408 7 2.66734 5.95325 2.66734 4.66668C2.66734 3.3801 3.71408 2.33335 5.00066 2.33335C6.28724 2.33335 7.33398 3.3801 7.33398 4.66668C7.33398 5.95325 6.28724 7 5.00066 7Z" fill="#3E66F3"/>
</svg>
