<svg width="67" height="87" viewBox="0 0 67 87" fill="none" xmlns="http://www.w3.org/2000/svg">
<g clip-path="url(#clip0)">
<path fill-rule="evenodd" clip-rule="evenodd" d="M43.5297 65.189C56.9297 60.8756 66.5939 48.3424 66.5939 33.5305C66.5939 15.219 51.8133 0.406982 33.5406 0.406982C15.2679 0.406982 0.406067 15.219 0.406067 33.5305C0.406067 48.668 10.5576 61.4453 24.4449 65.4332L34.1903 86.1048L43.5297 65.189Z" fill="#F8F8F8" stroke="#B3B3B3" stroke-miterlimit="10"/>
<path d="M58.7163 33.2049C58.7163 47.203 47.3466 58.5968 33.297 58.5968C19.3285 58.5968 7.95877 47.203 7.95877 33.2049C7.95877 19.2068 19.3285 7.81293 33.297 7.81293C47.3466 7.73155 58.7163 19.1254 58.7163 33.2049Z" fill="#271D70" stroke="#271D70" stroke-miterlimit="10"/>
<path opacity="0.5" d="M10.0703 32.5539C10.0703 45.4126 20.4655 33.4491 33.3782 33.4491C46.2097 33.4491 56.6861 45.4126 56.6861 32.5539C56.6861 19.6951 46.2909 9.19653 33.3782 9.19653C20.5467 9.19653 10.0703 19.6951 10.0703 32.5539Z" fill="url(#paint0_linear)"/>
</g>
<defs>
<linearGradient id="paint0_linear" x1="33.3684" y1="33.5306" x2="33.8168" y2="9.82168" gradientUnits="userSpaceOnUse">
<stop stop-color="white" stop-opacity="0"/>
<stop offset="0.9944" stop-color="white" stop-opacity="0.6"/>
</linearGradient>
<clipPath id="clip0">
<rect width="67" height="87" fill="white"/>
</clipPath>
</defs>
</svg>
