<svg width="29" height="40" fill="none" xmlns="http://www.w3.org/2000/svg"><path opacity=".2" d="M3.69 14.127c0-1.58 1.26-2.862 2.812-2.862h19.686c1.553 0 2.812 1.281 2.812 2.861v22.889c0 1.58-1.26 2.861-2.812 2.861H6.502c-1.553 0-2.812-1.28-2.812-2.861V14.126Z" fill="url(#a)"/><path d="M0 2.861C0 1.281 1.26 0 2.812 0h16.873l7.03 7.868v26.465c0 1.58-1.258 2.86-2.811 2.86H2.812C1.26 37.194 0 35.914 0 34.334V2.86Z" fill="url(#b)"/><path d="m19.684 0 3.867 4.292 3.163 3.576H21.09c-.777 0-1.406-.64-1.406-1.43V0Z" fill="#F52121"/><path d="M7.528 19.571v2.18H6.253v-6.186h2.413c.465 0 .873.085 1.224.255.354.17.626.412.815.727.19.311.285.666.285 1.066 0 .606-.208 1.085-.624 1.436-.414.348-.987.522-1.721.522H7.528Zm0-1.032h1.138c.337 0 .594-.08.77-.238.178-.159.267-.385.267-.68 0-.303-.09-.548-.268-.735-.178-.186-.425-.283-.739-.288H7.528v1.941ZM11.572 21.75v-6.185h1.903c.544 0 1.03.123 1.457.37.43.243.766.592 1.007 1.045.24.45.361.963.361 1.538v.284c0 .575-.119 1.087-.357 1.534a2.526 2.526 0 0 1-.998 1.04c-.43.247-.916.372-1.457.375h-1.916Zm1.275-5.152v4.129h.616c.498 0 .879-.163 1.142-.489.264-.325.398-.791.404-1.397v-.328c0-.628-.13-1.104-.391-1.427-.26-.326-.641-.488-1.143-.488h-.628ZM20.655 19.223h-2.447v2.528h-1.275v-6.186h4.028v1.033h-2.753v1.597h2.447v1.028Z" fill="#fff"/><defs><linearGradient id="a" x1="17.835" y1="-5.424" x2="-14.231" y2="16.027" gradientUnits="userSpaceOnUse"><stop stop-color="#FF5A5A"/><stop offset="1" stop-color="#F31919"/></linearGradient><linearGradient id="b" x1="14.93" y1="-21.697" x2="-22.901" y2="-1.147" gradientUnits="userSpaceOnUse"><stop stop-color="#FF5A5A"/><stop offset="1" stop-color="#F31919"/></linearGradient></defs></svg>