<svg width="13" height="13" viewBox="0 0 13 13" fill="none" xmlns="http://www.w3.org/2000/svg">
<path d="M11.1036 1.93286C9.84178 0.655822 8.10866 -0.0435094 6.31473 0.00209909C2.74206 0.108519 -0.0552637 3.07307 0.0511562 6.64574C0.066359 7.39068 0.218387 8.12042 0.492038 8.80455C0.720081 9.38225 1.02414 9.91435 1.40421 10.4008L0.872109 11.6627C0.65927 12.1492 0.887312 12.7117 1.3738 12.9245C1.54103 13.0005 1.73867 13.0157 1.92111 12.9853L4.38397 12.5596C5.26573 12.8637 6.1931 12.9701 7.12048 12.8789C10.2979 12.5596 12.7759 9.95996 12.9432 6.76736C13.0344 4.95823 12.3655 3.2099 11.1036 1.93286ZM6.02587 9.03259H4.33836C4.07991 9.03259 3.85187 8.81975 3.85187 8.5461C3.85187 8.28765 4.06471 8.05961 4.33836 8.05961H6.02587C6.28432 8.05961 6.51236 8.27245 6.51236 8.5461C6.51236 8.81975 6.29952 9.03259 6.02587 9.03259ZM8.65596 7.05622H4.33836C4.07991 7.05622 3.85187 6.84338 3.85187 6.56973C3.85187 6.29608 4.06471 6.08324 4.33836 6.08324H8.65596C8.91441 6.08324 9.14245 6.29608 9.14245 6.56973C9.14245 6.84338 8.91441 7.05622 8.65596 7.05622ZM8.65596 5.06465H4.33836C4.07991 5.06465 3.85187 4.85181 3.85187 4.57816C3.85187 4.31971 4.06471 4.09166 4.33836 4.09166H8.65596C8.91441 4.09166 9.14245 4.3045 9.14245 4.57816C9.14245 4.8366 8.91441 5.06465 8.65596 5.06465Z" fill="#b3b3b3"/>
</svg>
