<svg width="32" height="28" viewBox="0 0 32 28" fill="none" xmlns="http://www.w3.org/2000/svg">
<path d="M12.2103 9.15023C11.5606 9.06902 11.0733 8.74417 10.7485 8.2569C10.5861 7.93205 10.5048 7.52599 10.5048 7.03872H11.317C11.317 7.44478 11.3982 7.76963 11.4794 7.93205C11.6418 8.2569 12.0479 8.50054 12.5351 8.50054V5.98296C11.8855 5.82054 11.3982 5.65811 11.0733 5.33326C10.7485 5.00841 10.5861 4.60235 10.5861 4.11508C10.5861 3.62781 10.7485 3.22175 11.0733 2.81569C11.3982 2.40963 11.8855 2.2472 12.5351 2.2472V1.5975H12.9412V2.16599C13.5909 2.2472 13.997 2.40963 14.3218 2.73447C14.6467 3.05932 14.8091 3.46538 14.8091 3.95266H13.997C13.997 3.70902 13.9158 3.5466 13.8345 3.38417C13.6721 3.05932 13.3473 2.8969 12.9412 2.8969V5.17084C13.6721 5.33326 14.1594 5.5769 14.403 5.73932C14.8091 6.06417 15.0527 6.47023 15.0527 7.03872C15.0527 7.85084 14.8091 8.41932 14.2406 8.74417C13.997 8.9066 13.6721 8.98781 13.3473 9.06902C14.403 9.06902 15.4588 9.31266 16.5145 9.55629C17.4891 8.58175 18.0576 7.28235 18.0576 5.82054C18.0576 2.8969 15.7024 0.541748 12.7788 0.541748C9.85515 0.541748 7.5 2.8969 7.5 5.82054C7.5 7.36357 8.1497 8.66296 9.12424 9.6375C10.0988 9.47508 11.1545 9.23145 12.2103 9.15023Z" fill="white"/>
<path d="M11.7233 4.84591C11.8857 5.00833 12.2106 5.17075 12.5354 5.17075V2.97803C12.1293 2.97803 11.8045 3.14045 11.6421 3.38409C11.4796 3.62772 11.3984 3.87136 11.3984 4.115C11.3984 4.43985 11.5609 4.68348 11.7233 4.84591Z" fill="white"/>
<path d="M14.2406 7.36369C14.2406 6.95763 14.0782 6.71399 13.8346 6.47036C13.6722 6.38914 13.4285 6.22672 13.0225 6.14551V8.58187C13.5097 8.58187 13.9158 8.33824 14.0782 8.01339C14.1594 7.76975 14.2406 7.60733 14.2406 7.36369Z" fill="white"/>
<path d="M30.8896 19.7891C31.5393 19.1394 31.6205 17.84 31.4581 16.2158C30.7271 16.1346 29.5902 16.297 29.1841 16.2158C28.2096 14.2667 26.829 12.8049 24.8799 11.9115C24.9611 10.6934 25.1235 9.55639 25.8544 8.90669C24.0678 8.82548 22.6059 9.96245 21.6314 11.0994C20.8193 10.2061 19.5199 9.47518 18.0581 8.98791L17.1647 10.6121C14.4035 9.6376 11.3987 9.71882 8.71867 10.6121L7.50048 8.98791C5.6326 9.6376 3.92715 10.6122 2.54654 11.9928C1.65321 11.9115 1.73442 10.1249 2.87139 10.4497C1.00352 9.23154 0.0289689 12.6425 1.81564 13.0485C0.353817 15.16 0.191393 19.7079 2.14048 21.4134C2.46533 23.9309 2.87139 26.2861 4.08958 27.9103H8.15018C8.06897 27.0982 7.90654 26.2049 8.06897 25.2303C10.5053 25.7988 13.429 25.9612 16.3526 25.7176C16.8399 26.4485 17.2459 27.2606 17.8144 27.9103H21.7938C21.6314 26.8546 21.469 25.7176 21.7938 24.6618C22.6059 24.5806 27.5599 23.2812 30.8896 19.7891ZM25.3671 14.5103C25.9356 14.5103 26.3417 14.9164 26.3417 15.4849C26.3417 16.0534 25.9356 16.4594 25.3671 16.4594C24.7987 16.4594 24.3926 16.0534 24.3926 15.4849C24.3926 14.9164 24.8799 14.5103 25.3671 14.5103Z" fill="white"/>
</svg>
