<svg width="33" height="28" viewBox="0 0 33 28" fill="none" xmlns="http://www.w3.org/2000/svg">
<path d="M30.1845 21.2L30.9966 15.1091C30.1845 15.434 29.1287 15.6776 27.7481 15.9213C24.6621 16.4897 20.6015 16.8146 16.216 16.8146C11.9118 16.8146 7.76994 16.4897 4.68388 15.9213C3.38448 15.6776 2.32872 15.3528 1.5166 15.1091L2.32872 21.2C2.32872 21.3625 2.49115 21.6873 2.65357 21.7685C3.79054 22.6619 6.14569 23.7988 10.7748 24.2861V19.2509C10.7748 18.7637 11.1808 18.3576 11.6681 18.3576H20.7639C21.2511 18.3576 21.6572 18.7637 21.6572 19.2509V24.2861C26.3675 23.7988 28.7227 22.7431 29.8596 21.7685C30.0221 21.6061 30.1845 21.3625 30.1845 21.2Z" fill="white"/>
<path d="M31.7278 10.074C31.6466 10.1552 31.4842 10.1552 31.4029 10.2364C30.5908 10.6425 29.3726 10.9673 27.8296 11.2109C24.7436 11.7794 20.6829 12.1043 16.2975 12.1043C11.9932 12.1043 7.85143 11.7794 4.76537 11.2109C3.22234 10.9673 2.00416 10.5612 1.19204 10.2364C1.11082 10.1552 0.9484 10.1552 0.867188 10.074L1.35446 13.8909C1.43567 13.8909 1.51688 13.9722 1.5981 13.9722C2.32901 14.297 3.54719 14.6219 4.92779 14.8655C7.93264 15.434 11.9933 15.7588 16.2163 15.7588C20.5205 15.7588 24.4999 15.434 27.5048 14.8655C28.9666 14.6219 30.1036 14.297 30.8345 13.9722C30.9157 13.9722 30.9969 13.8909 31.0781 13.8909L31.7278 10.074Z" fill="white"/>
<path d="M1.67896 9.2618C2.40987 9.58665 3.62805 9.9115 5.00866 10.1551C5.00866 10.1551 5.08987 10.1551 5.08987 10.0739C7.60745 9.50544 11.7493 9.09938 16.2159 9.09938C20.7638 9.09938 24.9868 9.42423 27.4232 10.0739H27.5044C28.9662 9.83029 30.1032 9.50544 30.8341 9.18059C31.4838 8.93696 31.7274 8.69332 31.7274 8.5309V8.44968C31.7274 8.36847 31.565 8.12484 30.7529 7.71877C30.4281 7.55635 30.022 7.39393 29.5347 7.31271V5.52605L32.1335 3.98302C32.2959 3.9018 32.2959 3.73938 32.1335 3.65817L29.2099 1.95271C29.1287 1.95271 29.0474 1.8715 28.9662 1.8715C28.6414 1.8715 28.479 2.11514 28.479 2.35877V6.98786C28.1541 6.90665 27.7481 6.82544 27.4232 6.74423C24.4996 6.17574 20.7638 5.93211 16.7032 5.85089V4.30787L19.302 2.76483C19.4644 2.68362 19.4644 2.5212 19.302 2.43999L16.3784 0.734531C16.2971 0.734531 16.2159 0.65332 16.1347 0.65332C15.8099 0.65332 15.6474 0.896955 15.6474 1.14059V5.85089C11.5868 5.85089 7.68866 6.17574 4.84623 6.74423C4.52139 6.82544 4.19654 6.90665 3.87169 6.98786V5.52605L6.47048 3.98302C6.6329 3.9018 6.6329 3.73938 6.47048 3.65817L3.54684 1.95271C3.46563 1.95271 3.38442 1.8715 3.3032 1.8715C2.97836 1.8715 2.81593 2.11514 2.81593 2.35877V7.2315C2.32866 7.39392 1.84139 7.55635 1.51654 7.71877C0.704416 8.04362 0.541992 8.36847 0.541992 8.44968V8.5309C0.785629 8.77453 1.02926 9.01817 1.67896 9.2618Z" fill="white"/>
<path d="M25.3113 10.5612C22.875 10.2363 19.7077 9.99268 16.2968 9.99268C12.8859 9.99268 9.71859 10.1551 7.28223 10.5612C9.88101 10.886 13.0483 11.0484 16.2968 11.0484C19.5453 11.0484 22.7125 10.886 25.3113 10.5612Z" fill="white"/>
<path d="M11.9121 19.4133V25.3418L10.8564 25.6667L10.2067 25.9103C10.0443 25.9915 9.88184 26.1539 9.88184 26.3976V27.0473C9.88184 27.2097 10.0443 27.3721 10.2067 27.3721H22.3073C22.4697 27.3721 22.6321 27.2097 22.6321 27.0473V26.3976C22.6321 26.2351 22.4697 25.9915 22.3073 25.9103L21.7388 25.6667L20.6831 25.3418V19.4133H19.3837V23.88H13.1303V19.4133H11.9121Z" fill="white"/>
</svg>
