<svg width="26" height="28" viewBox="0 0 26 28" fill="none" xmlns="http://www.w3.org/2000/svg">
<path d="M5.39456 19.9816L7.50608 16.1647L0.603048 11.698C0.603048 11.698 0.0345622 16.8144 2.87699 18.3574C5.23214 19.738 5.39456 19.9816 5.39456 19.9816Z" fill="white"/>
<path d="M14.7337 2.11505C10.7543 0.734445 5.55673 0.409596 4.50098 2.11505L14.4089 8.12475L6.93734 19.5757L10.6731 21.8496L16.5204 27.2908H25.3725V21.9308L20.4998 18.0326C20.581 18.0326 24.4792 5.52596 14.7337 2.11505ZM13.1095 20.7126L8.88643 18.1951L11.6476 13.6472L15.8707 16.1648L13.1095 20.7126Z" fill="white"/>
<path d="M8.72434 25.6667L10.4298 22.8243L7.831 21.2812C7.831 21.2812 6.69403 24.4485 8.72434 25.6667Z" fill="white"/>
<path d="M10.9983 15.3526L11.5668 15.6774L11.2419 16.1647L10.6734 15.8399L10.4298 16.2459L10.9983 16.5708L10.6734 17.058L10.105 16.652L9.86133 17.058L10.4298 17.4641L10.105 18.1138L12.6225 19.6568L13.0286 19.0071L13.5971 19.332L13.8407 18.9259L13.2722 18.6011L13.5971 18.1138L14.1656 18.4386L14.4092 18.0326L13.8407 17.7077L14.1656 17.2205L14.6528 17.5453L14.8965 17.1392L14.4092 16.8144L14.8153 16.2459L12.2977 14.7029L11.8916 15.2714L11.3231 14.9465L10.9983 15.3526Z" fill="white"/>
<path d="M2.14648 11.9418L6.45073 14.5406L10.9174 12.023L11.0798 6.90665L6.77558 4.30786L2.30891 6.82544L2.14648 11.9418ZM6.53194 6.82544C7.99376 6.82544 9.21194 8.04362 9.21194 9.58665C9.21194 11.0485 7.99376 12.2666 6.45073 12.2666C4.9077 12.2666 3.77073 11.0485 3.85194 9.50543C3.85194 7.9624 5.07012 6.82544 6.53194 6.82544Z" fill="white"/>
</svg>
