<svg width="17" height="17" viewBox="0 0 17 17" fill="none" xmlns="http://www.w3.org/2000/svg">
<g opacity="0.8">
<path fill-rule="evenodd" clip-rule="evenodd" d="M13.5 8C13.5 11.0376 11.0376 13.5 8 13.5C4.96243 13.5 2.5 11.0376 2.5 8C2.5 4.96243 4.96243 2.5 8 2.5C11.0376 2.5 13.5 4.96243 13.5 8ZM12.436 13.4153C11.2284 14.4056 9.6836 15 8 15C4.13401 15 1 11.866 1 8C1 4.13401 4.13401 1 8 1C11.866 1 15 4.13401 15 8C15 9.65327 14.4269 11.1727 13.4684 12.3704C13.5118 12.3985 13.5529 12.4316 13.591 12.4697L16.5303 15.409C16.8232 15.7019 16.8232 16.1768 16.5303 16.4697C16.2374 16.7626 15.7626 16.7626 15.4697 16.4697L12.5303 13.5303C12.4945 13.4945 12.463 13.4559 12.436 13.4153Z" fill="#9B9DA7"/>
<path d="M12.436 13.4153L12.644 13.2767L12.4909 13.0469L12.2774 13.222L12.436 13.4153ZM13.4684 12.3704L13.2732 12.2141L13.1007 12.4297L13.3323 12.5801L13.4684 12.3704ZM16.5303 16.4697L16.3536 16.2929H16.3536L16.5303 16.4697ZM8 13.75C11.1756 13.75 13.75 11.1756 13.75 8H13.25C13.25 10.8995 10.8995 13.25 8 13.25V13.75ZM2.25 8C2.25 11.1756 4.82436 13.75 8 13.75V13.25C5.1005 13.25 2.75 10.8995 2.75 8H2.25ZM8 2.25C4.82436 2.25 2.25 4.82436 2.25 8H2.75C2.75 5.1005 5.1005 2.75 8 2.75V2.25ZM13.75 8C13.75 4.82436 11.1756 2.25 8 2.25V2.75C10.8995 2.75 13.25 5.1005 13.25 8H13.75ZM8 15.25C9.7435 15.25 11.3439 14.6342 12.5945 13.6086L12.2774 13.222C11.1129 14.177 9.6237 14.75 8 14.75V15.25ZM0.75 8C0.75 12.0041 3.99594 15.25 8 15.25V14.75C4.27208 14.75 1.25 11.7279 1.25 8H0.75ZM8 0.75C3.99594 0.75 0.75 3.99594 0.75 8H1.25C1.25 4.27208 4.27208 1.25 8 1.25V0.75ZM15.25 8C15.25 3.99594 12.0041 0.75 8 0.75V1.25C11.7279 1.25 14.75 4.27208 14.75 8H15.25ZM13.6636 12.5266C14.6562 11.2861 15.25 9.71207 15.25 8H14.75C14.75 9.59447 14.1975 11.0592 13.2732 12.2141L13.6636 12.5266ZM13.3323 12.5801C13.3611 12.5988 13.3886 12.6208 13.4142 12.6464L13.7678 12.2929C13.7173 12.2424 13.6625 12.1983 13.6045 12.1606L13.3323 12.5801ZM13.4142 12.6464L16.3536 15.5858L16.7071 15.2322L13.7678 12.2929L13.4142 12.6464ZM16.3536 15.5858C16.5488 15.781 16.5488 16.0976 16.3536 16.2929L16.7071 16.6464C17.0976 16.2559 17.0976 15.6228 16.7071 15.2322L16.3536 15.5858ZM16.3536 16.2929C16.1583 16.4882 15.8417 16.4882 15.6464 16.2929L15.2929 16.6464C15.6834 17.037 16.3166 17.037 16.7071 16.6464L16.3536 16.2929ZM15.6464 16.2929L12.7071 13.3536L12.3536 13.7071L15.2929 16.6464L15.6464 16.2929ZM12.7071 13.3536C12.683 13.3294 12.662 13.3037 12.644 13.2767L12.2279 13.5539C12.2641 13.6082 12.306 13.6595 12.3536 13.7071L12.7071 13.3536Z" fill="#9B9DA7"/>
</g>
</svg>
